RobotoSerifTextWide-SuperWidth1400.ufo
<glyph name="numbersign" format="2">
  <advance width="746.8"/>
  <unicode hex="0023"/>
  <outline>
    <contour>
      <point x="64.25999999999999" y="0.0" type="line"/>
      <point x="186.7" y="0.0" type="line"/>
      <point x="424.5" y="750.0" type="line"/>
      <point x="302.06000000000006" y="750.0" type="line"/>
    </contour>
    <contour>
      <point x="12.159999999999997" y="192.584" type="line"/>
      <point x="668.38" y="192.584" type="line"/>
      <point x="668.38" y="329.144" type="line"/>
      <point x="12.159999999999997" y="329.144" type="line"/>
    </contour>
    <contour>
      <point x="78.42000000000002" y="440.856" type="line"/>
      <point x="734.64" y="440.856" type="line"/>
      <point x="734.64" y="577.4159999999999" type="line"/>
      <point x="78.42000000000002" y="577.4159999999999" type="line"/>
    </contour>
    <contour>
      <point x="302.06" y="0.0" type="line"/>
      <point x="424.5" y="0.0" type="line"/>
      <point x="662.3000000000001" y="750.0" type="line"/>
      <point x="537.3199999999999" y="750.0" type="line"/>
    </contour>
  </outline>
</glyph>
<glyph name="four" format="2">
  <advance width="665.8399999999999"/>
  <unicode hex="0034"/>
  <outline>
    <contour>
      <point x="23.78" y="77.888" type="line"/>
      <point x="658.7600000000001" y="77.888" type="line"/>
      <point x="658.7600000000001" y="218.104" type="line"/>
      <point x="129.52" y="218.104" type="line"/>
      <point x="89.04000000000002" y="141.496" type="line"/>
      <point x="359.24" y="529.3919999999999" type="line"/>
      <point x="376.94" y="609.0" type="line"/>
      <point x="297.52" y="609.0" type="line"/>
      <point x="23.78" y="219.94400000000002" type="line"/>
    </contour>
    <contour>
      <point x="586.4200000000001" y="-77.0" type="line"/>
      <point x="586.4200000000001" y="609.0" type="line"/>
      <point x="335.4600000000001" y="609.0" type="line"/>
      <point x="316.21999999999997" y="521.424" type="line"/>
      <point x="316.21999999999997" y="-77.0" type="line"/>
    </contour>
  </outline>
</glyph>
<glyph name="B" format="2">
  <advance width="895"/>
  <unicode hex="0042"/>
  <outline>
    <contour>
      <point x="511.0" y="710.0" type="curve" smooth="yes"/>
      <point x="26.319999999999993" y="710.0" type="line"/>
      <point x="26.319999999999993" y="633.88" type="line"/>
      <point x="37.94" y="633.88" type="line" smooth="yes"/>
      <point x="67.8" y="633.88"/>
      <point x="89.03999999999999" y="626.88"/>
      <point x="89.03999999999999" y="597.88" type="curve" smooth="yes"/>
      <point x="89.03999999999999" y="112.11999999999999" type="line" smooth="yes"/>
      <point x="89.03999999999999" y="83.11999999999999"/>
      <point x="67.8" y="76.11999999999999"/>
      <point x="37.94" y="76.11999999999999" type="curve" smooth="yes"/>
      <point x="26.319999999999993" y="76.11999999999999" type="line"/>
      <point x="26.319999999999993" y="0.0" type="line"/>
      <point x="520.6199999999999" y="0.0" type="line" smooth="yes"/>
      <point x="746.8" y="0.0"/>
      <point x="868.24" y="75.168"/>
      <point x="868.24" y="199.83200000000002" type="curve" smooth="yes"/>
      <point x="868.24" y="317.16"/>
      <point x="744.2600000000001" y="373.688"/>
      <point x="595.5" y="380.344" type="curve"/>
      <point x="607.6600000000001" y="361.81600000000003" type="line"/>
      <point x="607.6600000000001" y="385.688" type="line"/>
      <point x="586.42" y="370.984" type="line"/>
      <point x="723.0200000000002" y="376.808"/>
      <point x="834.8399999999999" y="426.504"/>
      <point x="834.8399999999999" y="539.152" type="curve" smooth="yes"/>
      <point x="834.8399999999999" y="644.992"/>
      <point x="724.02" y="710.0"/>
    </contour>
    <contour>
      <point x="398.18000000000006" y="84.45599999999999" type="line"/>
      <point x="398.18000000000006" y="625.544" type="line"/>
      <point x="429.03999999999996" y="625.544" type="line" smooth="yes"/>
      <point x="488.7600000000001" y="625.544"/>
      <point x="527.7" y="589.696"/>
      <point x="527.7" y="525.6719999999999" type="curve" smooth="yes"/>
      <point x="527.7" y="449.504"/>
      <point x="496.84000000000003" y="410.81600000000003"/>
      <point x="420.96" y="410.81600000000003" type="curve" smooth="yes"/>
      <point x="350.62" y="410.81600000000003" type="line"/>
      <point x="350.62" y="329.856" type="line"/>
      <point x="427.04" y="329.856" type="line" smooth="yes"/>
      <point x="516.08" y="329.856"/>
      <point x="555.02" y="285.66400000000004"/>
      <point x="555.02" y="209.15200000000002" type="curve" smooth="yes"/>
      <point x="555.02" y="123.808"/>
      <point x="507.46" y="84.45599999999999"/>
      <point x="435.11999999999995" y="84.45599999999999" type="curve" smooth="yes"/>
    </contour>
  </outline>
</glyph>
<glyph name="R" format="2">
  <advance width="921"/>
  <unicode hex="0052"/>
  <anchor x="462.44000000000005" y="741.0" name="top"/>
  <anchor x="462.44000000000005" y="0.0" name="bottom"/>
  <outline>
    <contour>
      <point x="429" y="319" type="line"/>
      <point x="723" y="336.0" type="line"/>
      <point x="848.0" y="104" type="line" smooth="yes"/>
      <point x="860" y="82"/>
      <point x="872" y="76"/>
      <point x="890" y="76" type="curve" smooth="yes"/>
      <point x="900" y="76" type="line"/>
      <point x="900" y="0.0" type="line"/>
      <point x="575" y="0.0" type="line"/>
    </contour>
    <contour>
      <point x="26" y="0.0" type="line"/>
      <point x="26" y="76" type="line"/>
      <point x="38" y="76" type="line" smooth="yes"/>
      <point x="68" y="76"/>
      <point x="89" y="83"/>
      <point x="89" y="112" type="curve" smooth="yes"/>
      <point x="89" y="598" type="line" smooth="yes"/>
      <point x="89" y="627"/>
      <point x="68" y="634"/>
      <point x="38" y="634" type="curve" smooth="yes"/>
      <point x="26" y="634" type="line"/>
      <point x="26" y="710.0" type="line"/>
      <point x="517" y="710.0" type="line" smooth="yes"/>
      <point x="738" y="710.0"/>
      <point x="857" y="630"/>
      <point x="857" y="505" type="curve" smooth="yes"/>
      <point x="857" y="375"/>
      <point x="733" y="291"/>
      <point x="497" y="287" type="curve"/>
      <point x="497" y="286"/>
      <point x="497" y="285"/>
      <point x="492" y="285" type="curve"/>
      <point x="374" y="285" type="line"/>
      <point x="374" y="369" type="line"/>
      <point x="447" y="369" type="line" smooth="yes"/>
      <point x="513" y="369"/>
      <point x="542" y="421"/>
      <point x="542" y="505" type="curve" smooth="yes"/>
      <point x="542" y="579"/>
      <point x="513" y="625"/>
      <point x="453" y="625" type="curve" smooth="yes"/>
      <point x="398" y="625" type="line"/>
      <point x="398" y="86" type="line" smooth="yes"/>
      <point x="398" y="79"/>
      <point x="420" y="76"/>
      <point x="442" y="76" type="curve" smooth="yes"/>
      <point x="453" y="76" type="line"/>
      <point x="453" y="0.0" type="line"/>
    </contour>
  </outline>
</glyph>
<glyph name="X" format="2">
  <advance width="872"/>
  <unicode hex="0058"/>
  <outline>
    <contour>
      <point x="15.700000000000003" y="633.88" type="line"/>
      <point x="20.239999999999995" y="633.88" type="line" smooth="yes"/>
      <point x="47.559999999999995" y="633.88"/>
      <point x="57.179999999999986" y="630.2159999999999"/>
      <point x="77.42000000000002" y="601.88" type="curve" smooth="yes"/>
      <point x="280.82" y="329.848" type="line"/>
      <point x="287.9" y="325.848" type="line"/>
      <point x="463.44" y="86.11999999999999" type="line"/>
      <point x="463.44" y="79.11999999999999"/>
      <point x="437.6600000000001" y="76.11999999999999"/>
      <point x="415.88000000000005" y="76.11999999999999" type="curve" smooth="yes"/>
      <point x="399.71999999999997" y="76.11999999999999" type="line"/>
      <point x="399.71999999999997" y="0.0" type="line"/>
      <point x="863.1600000000001" y="0.0" type="line"/>
      <point x="863.1600000000001" y="76.11999999999999" type="line"/>
      <point x="852.54" y="76.11999999999999" type="line" smooth="yes"/>
      <point x="825.2199999999999" y="76.11999999999999"/>
      <point x="816.5999999999999" y="81.61600000000001"/>
      <point x="794.3600000000001" y="110.11999999999999" type="curve" smooth="yes"/>
      <point x="557.5600000000001" y="410.128" type="line"/>
      <point x="551.48" y="413.128" type="line"/>
      <point x="407.8" y="623.88" type="line"/>
      <point x="407.8" y="630.88"/>
      <point x="434.12" y="633.88"/>
      <point x="455.36" y="633.88" type="curve" smooth="yes"/>
      <point x="472.05999999999995" y="633.88" type="line"/>
      <point x="472.05999999999995" y="710.0" type="line"/>
      <point x="15.700000000000003" y="710.0" type="line"/>
    </contour>
    <contour>
      <point x="9.619999999999996" y="0.0" type="line"/>
      <point x="249.95999999999998" y="0.0" type="line"/>
      <point x="249.95999999999998" y="76.11999999999999" type="line"/>
      <point x="235.26" y="76.11999999999999" type="line" smooth="yes"/>
      <point x="213.02000000000004" y="76.11999999999999"/>
      <point x="184.15999999999997" y="83.11999999999999"/>
      <point x="184.15999999999997" y="94.11999999999999" type="curve"/>
      <point x="386.5600000000001" y="351.144" type="line"/>
      <point x="301.06" y="394.47999999999996" type="line"/>
      <point x="84.5" y="122.11999999999999" type="line" smooth="yes"/>
      <point x="58.18" y="88.448"/>
      <point x="47.56" y="76.11999999999999"/>
      <point x="20.240000000000002" y="76.11999999999999" type="curve" smooth="yes"/>
      <point x="9.619999999999996" y="76.11999999999999" type="line"/>
    </contour>
    <contour>
      <point x="573" y="328" type="line"/>
      <point x="757.4200000000001" y="588.88" type="line" smooth="yes"/>
      <point x="781" y="623"/>
      <point x="796.3600000000001" y="633.88"/>
      <point x="825.2200000000001" y="633.88" type="curve" smooth="yes"/>
      <point x="829.7600000000001" y="633.88" type="line"/>
      <point x="829.7600000000001" y="710.0" type="line"/>
      <point x="594.5" y="710.0" type="line"/>
      <point x="594.5" y="633.88" type="line"/>
      <point x="608.6600000000001" y="633.88" type="line" smooth="yes"/>
      <point x="631.4399999999999" y="633.88"/>
      <point x="657.7600000000001" y="626.88"/>
      <point x="657.7600000000001" y="615.88" type="curve"/>
      <point x="510.0" y="404.32000000000005" type="line"/>
    </contour>
  </outline>
</glyph>
<glyph name="bracketleft" format="2">
  <advance width="430.0400000000001"/>
  <unicode hex="005B"/>
  <outline>
    <contour>
      <point x="47.56" y="750.0" type="line"/>
      <point x="47.56" y="-130.0" type="line"/>
      <point x="273.2" y="-130.0" type="line"/>
      <point x="273.2" y="750.0" type="line"/>
    </contour>
    <contour>
      <point x="403.26" y="750.0" type="line"/>
      <point x="95.12" y="750.0" type="line"/>
      <point x="95.12" y="658.4" type="line"/>
      <point x="403.26" y="658.4" type="line"/>
    </contour>
    <contour>
      <point x="403.26" y="-38.4" type="line"/>
      <point x="95.12" y="-38.4" type="line"/>
      <point x="95.12" y="-130.0" type="line"/>
      <point x="403.26" y="-130.0" type="line"/>
    </contour>
  </outline>
</glyph>
<glyph name="f" format="2">
  <advance width="535.32"/>
  <unicode hex="0066"/>
  <outline>
    <contour>
      <point x="-3.552713678800501e-15" y="512.992" type="line"/>
      <point x="-3.552713678800501e-15" y="432.69599999999997" type="line"/>
      <point x="520.6200000000001" y="432.69599999999997" type="line"/>
      <point x="520.6200000000001" y="512.992" type="line"/>
    </contour>
    <contour>
      <point x="561.1" y="735.344" type="line"/>
      <point x="542.4" y="741.344"/>
      <point x="486.21999999999997" y="747.84"/>
      <point x="418.41999999999996" y="747.84" type="curve" smooth="yes"/>
      <point x="233.26" y="747.84"/>
      <point x="84.49999999999999" y="695.856"/>
      <point x="84.49999999999999" y="543.544" type="curve" smooth="yes"/>
      <point x="84.49999999999999" y="101.8" type="line" smooth="yes"/>
      <point x="84.49999999999999" y="80.28800000000001"/>
      <point x="66.80000000000001" y="70.792"/>
      <point x="33.400000000000006" y="70.792" type="curve" smooth="yes"/>
      <point x="19.24" y="70.792" type="line"/>
      <point x="19.24" y="0.0" type="line"/>
      <point x="455.36" y="0.0" type="line"/>
      <point x="455.36" y="70.792" type="line"/>
      <point x="443.74" y="70.792" type="line" smooth="yes"/>
      <point x="412.34000000000003" y="70.792"/>
      <point x="374.4" y="72.96000000000002"/>
      <point x="374.4" y="79.12799999999999" type="curve" smooth="yes"/>
      <point x="374.4" y="564.344" type="line" smooth="yes"/>
      <point x="374.4" y="633.8960000000001"/>
      <point x="406.8" y="661.888"/>
      <point x="469.52000000000004" y="661.888" type="curve" smooth="yes"/>
      <point x="512.54" y="661.888"/>
      <point x="549.48" y="651.2239999999999"/>
      <point x="561.1" y="647.384" type="curve"/>
    </contour>
  </outline>
</glyph>
<glyph name="k" format="2">
  <advance width="866"/>
  <unicode hex="006B"/>
  <anchor x="381.48" y="0.0" name="bottom"/>
  <outline>
    <contour>
      <point x="851.54" y="0.0" type="line"/>
      <point x="851.54" y="70.79199999999999" type="line"/>
      <point x="849.0" y="70.79199999999999" type="line"/>
      <point x="818.1399999999999" y="70.79199999999999"/>
      <point x="790" y="78"/>
      <point x="774.1200000000001" y="102.96799999999999" type="curve" smooth="yes"/>
      <point x="598" y="385" type="line"/>
      <point x="506.46000000000004" y="269.16" type="line"/>
      <point x="690" y="402" type="line" smooth="yes"/>
      <point x="719" y="423"/>
      <point x="751.3399999999999" y="442.2"/>
      <point x="797.9" y="442.2" type="curve"/>
      <point x="800.4399999999999" y="442.2" type="line"/>
      <point x="800.4399999999999" y="512.992" type="line"/>
      <point x="482.68000000000006" y="512.992" type="line"/>
      <point x="482.68000000000006" y="442.2" type="line"/>
      <point x="492.29999999999995" y="442.2" type="line"/>
      <point x="519.62" y="442.2"/>
      <point x="571.72" y="439.2"/>
      <point x="571.72" y="424.2" type="curve"/>
      <point x="374.4" y="279.656" type="line"/>
      <point x="374.4" y="250.528" type="line"/>
      <point x="472.06" y="79.12799999999999" type="line"/>
      <point x="472.06" y="72.96000000000001"/>
      <point x="451.81999999999994" y="70.79199999999999"/>
      <point x="439.6600000000001" y="70.79199999999999" type="curve"/>
      <point x="436.12" y="70.79199999999999" type="line"/>
      <point x="436.12" y="0.0" type="line"/>
    </contour>
    <contour>
      <point x="350.61999999999995" y="735.0" type="line"/>
      <point x="19.240000000000002" y="735.0" type="line"/>
      <point x="19.240000000000002" y="660.712" type="line"/>
      <point x="27.319999999999993" y="658.712" type="line" smooth="yes"/>
      <point x="51.099999999999994" y="652.2080000000001"/>
      <point x="59.71999999999999" y="647.704"/>
      <point x="59.71999999999999" y="629.52" type="curve" smooth="yes"/>
      <point x="59.71999999999999" y="98.47200000000001" type="line" smooth="yes"/>
      <point x="59.71999999999999" y="76.96000000000001"/>
      <point x="41.47999999999999" y="70.792"/>
      <point x="20.240000000000006" y="70.792" type="curve"/>
      <point x="19.240000000000002" y="70.792" type="line"/>
      <point x="19.240000000000002" y="0.0" type="line"/>
      <point x="386.56000000000006" y="0.0" type="line"/>
      <point x="386.56000000000006" y="70.792" type="line"/>
      <point x="383.02" y="70.792" type="line" smooth="yes"/>
      <point x="370.8600000000001" y="70.792"/>
      <point x="350.61999999999995" y="72.96000000000002"/>
      <point x="350.61999999999995" y="79.12799999999999" type="curve" smooth="yes"/>
    </contour>
  </outline>
</glyph>
<glyph name="n" format="2">
  <advance width="818"/>
  <unicode hex="006E"/>
  <anchor x="380.48" y="551.0" name="top"/>
  <anchor x="390.1" y="0.0" name="bottom"/>
  <outline>
    <contour>
      <point x="19.240000000000002" y="0.0" type="line"/>
      <point x="386.56000000000006" y="0.0" type="line"/>
      <point x="386.56000000000006" y="70.792" type="line"/>
      <point x="383.02" y="70.792" type="line" smooth="yes"/>
      <point x="370.85999999999996" y="70.792"/>
      <point x="350.62" y="72.96000000000002"/>
      <point x="350.62" y="79.12799999999999" type="curve" smooth="yes"/>
      <point x="350.62" y="404.312" type="line"/>
      <point x="333.91999999999996" y="400.33599999999996" type="line"/>
      <point x="333.91999999999996" y="512.992" type="line"/>
      <point x="19.240000000000002" y="512.992" type="line"/>
      <point x="19.240000000000002" y="438.704" type="line"/>
      <point x="27.319999999999997" y="436.704" type="line" smooth="yes"/>
      <point x="51.1" y="430.03200000000004"/>
      <point x="59.72" y="425.69599999999997"/>
      <point x="59.72" y="407.512" type="curve" smooth="yes"/>
      <point x="59.72" y="98.47200000000001" type="line" smooth="yes"/>
      <point x="59.72" y="76.96000000000001"/>
      <point x="41.47999999999999" y="70.792"/>
      <point x="20.240000000000002" y="70.792" type="curve" smooth="yes"/>
      <point x="19.240000000000002" y="70.792" type="line"/>
    </contour>
    <contour>
      <point x="803.98" y="0.0" type="line"/>
      <point x="803.98" y="70.792" type="line"/>
      <point x="801.4399999999999" y="70.792" type="line" smooth="yes"/>
      <point x="780.2" y="70.792"/>
      <point x="763.5" y="76.96000000000001"/>
      <point x="763.5" y="98.47200000000001" type="curve" smooth="yes"/>
      <point x="763.5" y="345.352" type="line" smooth="yes"/>
      <point x="763.5" y="461.344"/>
      <point x="680.0" y="522.992"/>
      <point x="553.0200000000002" y="522.992" type="curve" smooth="yes"/>
      <point x="442.2" y="522.992"/>
      <point x="354.1600000000001" y="473.67999999999995"/>
      <point x="322.3" y="394.688" type="curve"/>
      <point x="322.3" y="286.75199999999995" type="line"/>
      <point x="355.70000000000005" y="368.408"/>
      <point x="386.55999999999995" y="408.408"/>
      <point x="430.58000000000004" y="408.408" type="curve" smooth="yes"/>
      <point x="458.9" y="408.408"/>
      <point x="472.06" y="389.384"/>
      <point x="472.06" y="350.992" type="curve" smooth="yes"/>
      <point x="472.06" y="79.12799999999999" type="line" smooth="yes"/>
      <point x="472.06" y="72.96000000000002"/>
      <point x="451.81999999999994" y="70.792"/>
      <point x="437.6600000000001" y="70.792" type="curve" smooth="yes"/>
      <point x="436.11999999999995" y="70.792" type="line"/>
      <point x="436.11999999999995" y="0.0" type="line"/>
    </contour>
  </outline>
</glyph>
<glyph name="o" format="2">
  <advance width="794.3600000000001"/>
  <unicode hex="006F"/>
  <anchor x="364.78000000000003" y="551.0" name="top"/>
  <anchor x="488.76000000000005" y="0.0" name="right"/>
  <anchor x="364.78000000000003" y="0.0" name="bottom"/>
  <outline>
    <contour>
      <point x="397.18000000000006" y="-10.0" type="curve"/>
      <point x="628.9" y="-10.0"/>
      <point x="767.04" y="97.832"/>
      <point x="767.04" y="256.496" type="curve" smooth="yes"/>
      <point x="767.04" y="414.82399999999996"/>
      <point x="628.9" y="522.992"/>
      <point x="397.18000000000006" y="522.992" type="curve" smooth="yes"/>
      <point x="165.45999999999998" y="522.992"/>
      <point x="27.32" y="414.992"/>
      <point x="27.32" y="256.496" type="curve" smooth="yes"/>
      <point x="27.32" y="97.832"/>
      <point x="165.45999999999998" y="-10.0"/>
    </contour>
    <contour>
      <point x="397.18000000000006" y="75.28800000000001" type="curve"/>
      <point x="347.08000000000004" y="75.28800000000001"/>
      <point x="324.84000000000003" y="134.824"/>
      <point x="324.84000000000003" y="256.496" type="curve" smooth="yes"/>
      <point x="324.84000000000003" y="377.832"/>
      <point x="347.08000000000004" y="434.37600000000003"/>
      <point x="397.18000000000006" y="434.37600000000003" type="curve" smooth="yes"/>
      <point x="447.28000000000003" y="434.37600000000003"/>
      <point x="469.5199999999999" y="377.832"/>
      <point x="469.5199999999999" y="256.496" type="curve" smooth="yes"/>
      <point x="469.5199999999999" y="134.656"/>
      <point x="447.28000000000003" y="75.28800000000001"/>
    </contour>
  </outline>
</glyph>
<glyph name="r" format="2">
  <advance width="576"/>
  <unicode hex="0072"/>
  <anchor x="264.12" y="545.0" name="top"/>
  <anchor x="200.85999999999999" y="0.0" name="bottom"/>
  <outline>
    <contour>
      <point x="549.48" y="512.5039999999999" type="line"/>
      <point x="540.86" y="515.336"/>
      <point x="524.1600000000001" y="518.0"/>
      <point x="501.91999999999996" y="518.0" type="curve" smooth="yes"/>
      <point x="387.55999999999995" y="518.0"/>
      <point x="352.15999999999997" y="439.2"/>
      <point x="322.3" y="328.744" type="curve"/>
      <point x="322.3" y="270.232" type="line"/>
      <point x="350.62" y="325.28"/>
      <point x="407.8" y="339.15200000000004"/>
      <point x="475.59999999999997" y="339.15200000000004" type="curve" smooth="yes"/>
      <point x="502.9199999999999" y="339.15200000000004"/>
      <point x="529.24" y="335.32000000000005"/>
      <point x="549.48" y="331.152" type="curve"/>
    </contour>
    <contour>
      <point x="19.240000000000002" y="0.0" type="line"/>
      <point x="417.41999999999996" y="0.0" type="line"/>
      <point x="417.41999999999996" y="70.792" type="line"/>
      <point x="414.88000000000005" y="70.792" type="line" smooth="yes"/>
      <point x="388.56" y="70.792"/>
      <point x="350.62" y="72.96000000000001"/>
      <point x="350.62" y="83.328" type="curve" smooth="yes"/>
      <point x="350.62" y="359.18399999999997" type="line"/>
      <point x="333.91999999999996" y="345.192" type="line"/>
      <point x="333.91999999999996" y="512.992" type="line"/>
      <point x="19.240000000000002" y="512.992" type="line"/>
      <point x="19.240000000000002" y="438.704" type="line"/>
      <point x="27.319999999999997" y="436.704" type="line" smooth="yes"/>
      <point x="51.1" y="430.03200000000004"/>
      <point x="59.72" y="425.69599999999997"/>
      <point x="59.72" y="407.512" type="curve" smooth="yes"/>
      <point x="59.72" y="98.47200000000001" type="line" smooth="yes"/>
      <point x="59.72" y="76.96000000000001"/>
      <point x="41.47999999999999" y="70.792"/>
      <point x="20.240000000000002" y="70.792" type="curve" smooth="yes"/>
      <point x="19.240000000000002" y="70.792" type="line"/>
    </contour>
  </outline>
</glyph>
<glyph name="yen" format="2">
  <advance width="665.8399999999999"/>
  <unicode hex="00A5"/>
  <outline>
    <contour>
      <point x="53.639999999999986" y="373.13599999999997" type="line"/>
      <point x="53.639999999999986" y="281.2" type="line"/>
      <point x="617.28" y="281.2" type="line"/>
      <point x="617.28" y="373.13599999999997" type="line"/>
    </contour>
    <contour>
      <point x="53.639999999999986" y="241.472" type="line"/>
      <point x="53.639999999999986" y="149.536" type="line"/>
      <point x="617.28" y="149.536" type="line"/>
      <point x="617.28" y="241.472" type="line"/>
    </contour>
    <contour>
      <point x="10.620000000000001" y="710.0" type="line"/>
      <point x="10.620000000000001" y="633.88" type="line"/>
      <point x="14.159999999999997" y="633.88" type="line" smooth="yes"/>
      <point x="30.86" y="633.88"/>
      <point x="40.480000000000004" y="629.552"/>
      <point x="52.099999999999994" y="607.88" type="curve" smooth="yes"/>
      <point x="206.94000000000003" y="329.648" type="line"/>
      <point x="467.5199999999999" y="327.984" type="line"/>
      <point x="604.12" y="592.88" type="line" smooth="yes"/>
      <point x="621.8199999999999" y="627.384"/>
      <point x="633.98" y="633.88"/>
      <point x="652.6800000000001" y="633.88" type="curve" smooth="yes"/>
      <point x="655.2200000000003" y="633.88" type="line"/>
      <point x="655.2200000000003" y="710.0" type="line"/>
      <point x="463.44000000000005" y="710.0" type="line"/>
      <point x="463.44000000000005" y="633.88" type="line"/>
      <point x="465.9800000000001" y="633.88" type="line" smooth="yes"/>
      <point x="486.22" y="633.88"/>
      <point x="502.91999999999996" y="626.88"/>
      <point x="502.91999999999996" y="615.88" type="curve"/>
      <point x="387.56000000000006" y="381.13599999999997" type="line"/>
      <point x="457.9" y="398.60800000000006" type="line"/>
      <point x="345.08000000000004" y="623.88" type="line"/>
      <point x="345.08000000000004" y="630.88"/>
      <point x="359.24" y="633.88"/>
      <point x="376.94000000000005" y="633.88" type="curve" smooth="yes"/>
      <point x="384.02" y="633.88" type="line"/>
      <point x="384.02" y="710.0" type="line"/>
    </contour>
    <contour>
      <point x="118.9" y="0.0" type="line"/>
      <point x="551.48" y="0.0" type="line"/>
      <point x="551.48" y="76.11999999999999" type="line"/>
      <point x="535.3199999999999" y="76.11999999999999" type="line" smooth="yes"/>
      <point x="506.4600000000001" y="76.11999999999999"/>
      <point x="485.2199999999999" y="83.11999999999999"/>
      <point x="485.2199999999999" y="112.11999999999999" type="curve" smooth="yes"/>
      <point x="485.2199999999999" y="374.648" type="line"/>
      <point x="185.70000000000005" y="374.648" type="line"/>
      <point x="185.70000000000005" y="112.11999999999999" type="line" smooth="yes"/>
      <point x="185.70000000000005" y="83.11999999999999"/>
      <point x="163.92" y="76.11999999999999"/>
      <point x="135.6" y="76.11999999999999" type="curve" smooth="yes"/>
      <point x="118.9" y="76.11999999999999" type="line"/>
    </contour>
  </outline>
</glyph>
<glyph name="degree" format="2">
  <advance width="602.1199999999999"/>
  <unicode hex="00B0"/>
  <outline>
    <contour>
      <point x="399.7199999999999" y="530.696" type="curve" smooth="yes"/>
      <point x="399.7199999999999" y="474.5765506978035"/>
      <point x="360.24000000000007" y="437.66400000000004"/>
      <point x="301.05999999999995" y="437.66400000000004" type="curve" smooth="yes"/>
      <point x="242.34" y="437.66400000000004"/>
      <point x="202.40000000000003" y="474.5765506978035"/>
      <point x="202.40000000000003" y="530.696" type="curve" smooth="yes"/>
      <point x="202.40000000000003" y="588.5036558138729"/>
      <point x="242.34000000000003" y="623.7280000000001"/>
      <point x="301.05999999999995" y="623.7280000000001" type="curve" smooth="yes"/>
      <point x="360.24" y="623.7280000000001"/>
      <point x="399.7199999999999" y="588.5036558138729"/>
    </contour>
    <contour>
      <point x="47.56" y="530.696" type="curve" smooth="yes"/>
      <point x="47.56" y="412.88"/>
      <point x="160.38" y="332.39199999999994"/>
      <point x="301.05999999999995" y="332.39199999999994" type="curve" smooth="yes"/>
      <point x="441.20000000000005" y="332.39199999999994"/>
      <point x="554.02" y="412.88"/>
      <point x="554.02" y="530.696" type="curve" smooth="yes"/>
      <point x="554.02" y="648.512"/>
      <point x="441.20000000000005" y="729.0"/>
      <point x="301.05999999999995" y="729.0" type="curve" smooth="yes"/>
      <point x="160.38" y="729.0"/>
      <point x="47.56" y="648.512"/>
    </contour>
  </outline>
</glyph>
<glyph name="acute" format="2">
  <advance width="594.5"/>
  <unicode hex="00B4"/>
  <anchor x="258.04" y="527.0" name="_top"/>
  <outline>
    <contour>
      <point x="247.42000000000002" y="682.872" type="curve" smooth="yes"/>
      <point x="218.55999999999997" y="585.168" type="line"/>
      <point x="218.55999999999997" y="555.1840000000001" type="line"/>
      <point x="303.05999999999995" y="555.1840000000001" type="line"/>
      <point x="388.56000000000006" y="606.088" type="line" smooth="yes"/>
      <point x="454.35999999999996" y="636.0719999999999"/>
      <point x="483.68000000000006" y="670.384"/>
      <point x="483.68000000000006" y="710.848" type="curve" smooth="yes"/>
      <point x="483.68000000000006" y="749.488"/>
      <point x="443.74" y="779.8"/>
      <point x="380.4800000000001" y="779.8" type="curve" smooth="yes"/>
      <point x="306.6" y="779.8"/>
      <point x="267.65999999999997" y="743.664"/>
    </contour>
  </outline>
</glyph>
<glyph name="ordmasculine" format="2">
  <advance width="632.4399999999998"/>
  <unicode hex="00BA"/>
  <outline>
    <contour>
      <point x="316.2199999999999" y="310.0" type="curve" smooth="yes"/>
      <point x="499.38000000000005" y="310.0"/>
      <point x="608.6600000000002" y="392.832"/>
      <point x="608.6600000000002" y="515.832" type="curve" smooth="yes"/>
      <point x="608.6600000000002" y="637.832"/>
      <point x="499.38000000000005" y="720.0"/>
      <point x="316.2199999999999" y="720.0" type="curve" smooth="yes"/>
      <point x="133.06" y="720.0"/>
      <point x="23.779999999999994" y="637.832"/>
      <point x="23.779999999999994" y="515.832" type="curve" smooth="yes"/>
      <point x="23.779999999999994" y="392.832"/>
      <point x="133.06" y="310.0"/>
    </contour>
    <contour>
      <point x="316.2199999999999" y="385.632" type="curve" smooth="yes"/>
      <point x="278.2800000000001" y="385.632"/>
      <point x="261.58" y="426.496"/>
      <point x="261.58" y="515.832" type="curve" smooth="yes"/>
      <point x="261.58" y="602.832"/>
      <point x="278.2800000000001" y="644.3679999999999"/>
      <point x="316.2199999999999" y="644.3679999999999" type="curve" smooth="yes"/>
      <point x="354.15999999999997" y="644.3679999999999"/>
      <point x="370.85999999999996" y="602.832"/>
      <point x="370.85999999999996" y="515.832" type="curve" smooth="yes"/>
      <point x="370.85999999999996" y="426.496"/>
      <point x="354.15999999999997" y="385.632"/>
    </contour>
  </outline>
</glyph>
<glyph name="Oslash" format="2">
  <advance width="967.9000000000001"/>
  <unicode hex="00D8"/>
  <anchor x="471.06000000000006" y="731.0" name="top"/>
  <outline>
    <contour>
      <point x="814.6000000000001" y="725.0" type="line"/>
      <point x="-26.32" y="-15.0" type="line"/>
      <point x="122.44" y="-15.0" type="line"/>
      <point x="963.3600000000001" y="725.0" type="line"/>
    </contour>
    <contour>
      <point x="483.68000000000006" y="-10.0" type="curve" smooth="yes"/>
      <point x="750.3399999999999" y="-10.0"/>
      <point x="934.5" y="134.008"/>
      <point x="934.5" y="355.0" type="curve" smooth="yes"/>
      <point x="934.5" y="576.16"/>
      <point x="726.5600000000002" y="720.0"/>
      <point x="483.68000000000006" y="720.0" type="curve" smooth="yes"/>
      <point x="217.55999999999995" y="720.0"/>
      <point x="33.4" y="576.16"/>
      <point x="33.4" y="355.0" type="curve" smooth="yes"/>
      <point x="33.4" y="134.008"/>
      <point x="245.88" y="-10.0"/>
    </contour>
    <contour>
      <point x="478.14" y="83.28" type="curve" smooth="yes"/>
      <point x="379.31172413740006" y="83.28"/>
      <point x="335.4600000000001" y="165.472"/>
      <point x="335.4600000000001" y="355.0" type="curve" smooth="yes"/>
      <point x="335.4600000000001" y="532.848"/>
      <point x="391.8088888884" y="626.72"/>
      <point x="489.7600000000001" y="626.72" type="curve" smooth="yes"/>
      <point x="588.0482758626" y="626.72"/>
      <point x="632.4399999999999" y="544.528"/>
      <point x="632.4399999999999" y="355.0" type="curve" smooth="yes"/>
      <point x="632.4399999999999" y="177.15200000000002"/>
      <point x="576.0911111116002" y="83.28"/>
    </contour>
  </outline>
</glyph>
<glyph name="germandbls" format="2">
  <advance width="833.3"/>
  <unicode hex="00DF"/>
  <outline>
    <contour>
      <point x="-3.552713678800501e-15" y="512.992" type="line"/>
      <point x="-3.552713678800501e-15" y="432.69599999999997" type="line"/>
      <point x="160.38" y="432.69599999999997" type="line"/>
      <point x="160.38" y="512.992" type="line"/>
    </contour>
    <contour>
      <point x="17.700000000000006" y="0.0" type="line"/>
      <point x="374.4" y="0.0" type="line"/>
      <point x="374.4" y="556.024" type="line" smooth="yes"/>
      <point x="374.4" y="633.8960000000001"/>
      <point x="390.1" y="660.2239999999999"/>
      <point x="432.58000000000004" y="660.2239999999999" type="curve" smooth="yes"/>
      <point x="468.5199999999999" y="660.2239999999999"/>
      <point x="485.21999999999997" y="636.0400000000001"/>
      <point x="485.21999999999997" y="584.848" type="curve" smooth="yes"/>
      <point x="485.21999999999997" y="500.6988680701754"/>
      <point x="449.3600921445893" y="464.1642104197707"/>
      <point x="413.88000000000005" y="456.488" type="curve"/>
      <point x="413.88000000000005" y="381.192" type="line"/>
      <point x="419.96000000000015" y="380.36" type="line" smooth="yes"/>
      <point x="473.1282985887619" y="372.86892248333027"/>
      <point x="512.54" y="310.82399999999996"/>
      <point x="512.54" y="207.464" type="curve" smooth="yes"/>
      <point x="512.54" y="102.984"/>
      <point x="479.14000000000004" y="77.78399999999999"/>
      <point x="448.2800000000001" y="77.78399999999999" type="curve" smooth="yes"/>
      <point x="430.58000000000004" y="77.78399999999999"/>
      <point x="419.9599999999999" y="84.63999999999999"/>
      <point x="413.88000000000005" y="85.976" type="curve"/>
      <point x="413.88000000000005" y="8.504" type="line"/>
      <point x="441.20000000000005" y="-0.496"/>
      <point x="492.29999999999995" y="-10.0"/>
      <point x="547.94" y="-10.0" type="curve" smooth="yes"/>
      <point x="712.4000000000001" y="-10.0"/>
      <point x="809.52" y="59.992"/>
      <point x="809.52" y="194.98399999999998" type="curve" smooth="yes"/>
      <point x="809.52" y="326.3383658064861"/>
      <point x="679.0120511468001" y="422.9677090955515"/>
      <point x="479.14" y="443.152" type="curve"/>
      <point x="456.35999999999996" y="424.152" type="line"/>
      <point x="614.7399999999999" y="421.84"/>
      <point x="748.8" y="476.09085347589485"/>
      <point x="748.8" y="584.032" type="curve" smooth="yes"/>
      <point x="748.8" y="688.168"/>
      <point x="632.4399999999999" y="747.84"/>
      <point x="428.04" y="747.84" type="curve" smooth="yes"/>
      <point x="173.54000000000002" y="747.84"/>
      <point x="82.96" y="667.568"/>
      <point x="82.96" y="534.3919999999999" type="curve" smooth="yes"/>
      <point x="82.96" y="101.8" type="line" smooth="yes"/>
      <point x="82.96" y="80.28800000000001"/>
      <point x="65.26000000000002" y="70.792"/>
      <point x="31.860000000000007" y="70.792" type="curve" smooth="yes"/>
      <point x="17.700000000000006" y="70.792" type="line"/>
    </contour>
  </outline>
</glyph>
<glyph name="eth" format="2">
  <advance width="790.8200000000002"/>
  <unicode hex="00F0"/>
  <outline>
    <contour>
      <point x="511.0" y="413.992" type="curve"/>
      <point x="475.6" y="486.66400000000004"/>
      <point x="431.58000000000004" y="522.992"/>
      <point x="319.76" y="522.992" type="curve" smooth="yes"/>
      <point x="152.3" y="522.992"/>
      <point x="27.32" y="414.66400000000004"/>
      <point x="27.32" y="260.16" type="curve" smooth="yes"/>
      <point x="27.32" y="92.34400000000001"/>
      <point x="172.54000000000002" y="-10.0"/>
      <point x="397.18000000000006" y="-10.0" type="curve" smooth="yes"/>
      <point x="614.74" y="-10.0"/>
      <point x="763.5" y="108.176"/>
      <point x="763.5" y="294.832" type="curve" smooth="yes"/>
      <point x="763.5" y="474.848"/>
      <point x="645.5999999999999" y="650.7098833055366"/>
      <point x="237.8" y="741.1840000000001" type="curve"/>
      <point x="189.24" y="674.2239999999999" type="line"/>
      <point x="428.0400000000001" y="614.2191818405148"/>
      <point x="469.52" y="461.86400000000003"/>
      <point x="469.52" y="292.33599999999996" type="curve" smooth="yes"/>
      <point x="469.52" y="133.352"/>
      <point x="448.28000000000003" y="78.61600000000001"/>
      <point x="397.18000000000006" y="78.61600000000001" type="curve" smooth="yes"/>
      <point x="353.15999999999997" y="78.61600000000001"/>
      <point x="324.84000000000003" y="122.68"/>
      <point x="324.84000000000003" y="260.16" type="curve" smooth="yes"/>
      <point x="324.84000000000003" y="367.52000000000004"/>
      <point x="342.54" y="434.37600000000003"/>
      <point x="401.71999999999997" y="434.37600000000003" type="curve" smooth="yes"/>
      <point x="447.2800000000001" y="434.37600000000003"/>
      <point x="475.6" y="400.2"/>
      <point x="505.46000000000004" y="336.016" type="curve"/>
      <point x="542.4000000000001" y="366.67999999999995"/>
      <point x="551.0755003392801" y="399.4218799472394"/>
    </contour>
    <contour>
      <point x="155.84" y="585.3280000000001" type="line"/>
      <point x="186.7" y="530.336" type="line"/>
      <point x="600.58" y="682.008" type="line"/>
      <point x="569.72" y="737.0" type="line"/>
    </contour>
  </outline>
</glyph>
<glyph name="tbar" format="2">
  <advance width="509.0"/>
  <unicode hex="0167"/>
  <outline>
    <contour>
      <point x="491.3" y="331.488" type="line"/>
      <point x="0.0" y="331.488" type="line"/>
      <point x="0.0" y="243.712" type="line"/>
      <point x="491.3" y="243.712" type="line"/>
    </contour>
    <component base="t" xOffset="38.88000000000001"/>
  </outline>
</glyph>
<glyph name="Ohorn" format="2">
  <advance width="985.6"/>
  <unicode hex="01A0"/>
  <anchor x="471.06000000000006" y="742.0" name="top"/>
  <outline>
    <contour>
      <point x="618.28" y="660.864" type="curve"/>
      <point x="870.24" y="644.704"/>
      <point x="992.6800000000001" y="700.0400000000001"/>
      <point x="992.6800000000001" y="877.0" type="curve"/>
      <point x="796.36" y="877.0" type="line"/>
      <point x="794.3600000000001" y="767.32"/>
      <point x="719.4800000000001" y="720.0"/>
      <point x="471.0600000000001" y="720.0" type="curve"/>
      <point x="535.3199999999999" y="708.5039999999999"/>
      <point x="573.2600000000001" y="675.3599999999999"/>
    </contour>
    <contour>
      <point x="483.68000000000006" y="-10.0" type="curve" smooth="yes"/>
      <point x="750.3399999999999" y="-10.0"/>
      <point x="934.5" y="134.008"/>
      <point x="934.5" y="355.0" type="curve" smooth="yes"/>
      <point x="934.5" y="525.32"/>
      <point x="826.2199999999999" y="645.832"/>
      <point x="649.1399999999999" y="682.6719999999999" type="curve"/>
      <point x="605.12" y="711.832"/>
      <point x="547.9399999999999" y="720.0"/>
      <point x="483.68000000000006" y="720.0" type="curve" smooth="yes"/>
      <point x="217.55999999999995" y="720.0"/>
      <point x="33.4" y="575.3280000000001"/>
      <point x="33.4" y="355.0" type="curve" smooth="yes"/>
      <point x="33.4" y="134.008"/>
      <point x="217.55999999999995" y="-10.0"/>
    </contour>
    <contour>
      <point x="483.68000000000006" y="83.28" type="curve" smooth="yes"/>
      <point x="403.26000000000005" y="83.28"/>
      <point x="354.1600000000001" y="177.15200000000002"/>
      <point x="354.1600000000001" y="355.0" type="curve" smooth="yes"/>
      <point x="354.1600000000001" y="532.848"/>
      <point x="403.26000000000005" y="626.72"/>
      <point x="483.68000000000006" y="626.72" type="curve" smooth="yes"/>
      <point x="564.64" y="626.72"/>
      <point x="613.74" y="532.848"/>
      <point x="613.74" y="355.0" type="curve" smooth="yes"/>
      <point x="613.74" y="177.15200000000002"/>
      <point x="564.64" y="83.28"/>
    </contour>
  </outline>
</glyph>
<glyph name="verticallinemod" format="2">
  <advance width="595.04"/>
  <unicode hex="02C8"/>
  <outline>
    <contour>
      <point x="220.1" y="530.3599999999999" type="line"/>
      <point x="373.40000000000003" y="530.3599999999999" type="line"/>
      <point x="373.40000000000003" y="750.0" type="line"/>
      <point x="220.1" y="750.0" type="line"/>
    </contour>
  </outline>
</glyph>
<glyph name="ogonek" format="2">
  <advance width="713.4"/>
  <unicode hex="02DB"/>
  <anchor x="423.5" y="9.0" name="_right"/>
  <outline>
    <contour>
      <point x="448.28000000000003" y="41.65599999999999" type="line"/>
      <point x="257.04" y="-7.023999999999999"/>
      <point x="156.84000000000003" y="-54.536"/>
      <point x="156.84000000000003" y="-140.008" type="curve" smooth="yes"/>
      <point x="156.84000000000003" y="-207.824"/>
      <point x="225.64000000000004" y="-244.32"/>
      <point x="330.38000000000005" y="-244.32" type="curve" smooth="yes"/>
      <point x="429.04" y="-244.32"/>
      <point x="485.21999999999997" y="-214.504"/>
      <point x="527.7" y="-170.032" type="curve"/>
      <point x="471.0600000000001" y="-121.05599999999998" type="line"/>
      <point x="459.657114589" y="-130.4064807597276"/>
      <point x="438.65999999999997" y="-149.05599999999998"/>
      <point x="407.8" y="-149.05599999999998" type="curve" smooth="yes"/>
      <point x="380.48" y="-149.05599999999998"/>
      <point x="363.78000000000003" y="-135.72"/>
      <point x="363.78000000000003" y="-107.71199999999999" type="curve" smooth="yes"/>
      <point x="363.78000000000003" y="-72.63597152541666"/>
      <point x="392.77309981354006" y="-28.484754031911844"/>
      <point x="500.38" y="13.823999999999998" type="curve"/>
    </contour>
  </outline>
</glyph>
<glyph name="Delta" format="2">
  <advance width="943.1200000000002"/>
  <unicode hex="0394"/>
  <outline>
    <contour>
      <point x="29.860000000000003" y="0.0" type="line"/>
      <point x="913.26" y="0.0" type="line"/>
      <point x="913.26" y="126.91999999999999" type="line"/>
      <point x="582.88" y="710.0" type="line"/>
      <point x="360.24" y="710.0" type="line"/>
      <point x="29.860000000000003" y="126.91999999999999" type="line"/>
    </contour>
    <contour>
      <point x="638.52" y="71.96" type="line"/>
      <point x="792.8200000000002" y="146.89599999999996" type="line"/>
      <point x="90.57999999999998" y="146.89599999999996" type="line"/>
      <point x="122.44" y="95.92" type="line"/>
      <point x="456.3600000000001" y="690.68" type="line"/>
      <point x="333.91999999999996" y="644.256" type="line"/>
    </contour>
  </outline>
</glyph>
<glyph name="pi" format="2">
  <advance width="1011.9200000000002"/>
  <unicode hex="03C0"/>
  <outline>
    <contour>
      <point x="482.68000000000006" y="0.0" type="line"/>
      <point x="482.68000000000006" y="453.03999999999996" type="line"/>
      <point x="305.6" y="453.03999999999996" type="line"/>
      <point x="294.98" y="197.184"/>
      <point x="251.95999999999998" y="174.01600000000002"/>
      <point x="251.95999999999998" y="0.0" type="curve"/>
    </contour>
    <contour>
      <point x="922.8800000000001" y="363.10400000000004" type="line"/>
      <point x="922.8800000000001" y="512.992" type="line"/>
      <point x="345.08000000000004" y="512.992" type="line" smooth="yes"/>
      <point x="139.14000000000001" y="512.992"/>
      <point x="60.72" y="425.192"/>
      <point x="23.78" y="306.39200000000005" type="curve"/>
      <point x="166.45999999999998" y="253.76000000000002" type="line"/>
      <point x="189.24" y="320.10400000000004"/>
      <point x="217.56" y="363.10400000000004"/>
      <point x="315.21999999999997" y="363.10400000000004" type="curve" smooth="yes"/>
    </contour>
    <contour>
      <point x="777.6600000000001" y="145.6" type="curve" smooth="yes"/>
      <point x="777.6600000000001" y="453.03999999999996" type="line"/>
      <point x="598.04" y="453.03999999999996" type="line"/>
      <point x="580.3399999999999" y="278.432"/>
      <point x="542.4000000000001" y="213.928"/>
      <point x="542.4000000000001" y="145.6" type="curve" smooth="yes"/>
      <point x="542.4000000000001" y="38.80800000000001"/>
      <point x="637.52" y="-10.0"/>
      <point x="758.4200000000003" y="-10.0" type="curve" smooth="yes"/>
      <point x="872.7800000000001" y="-10.0"/>
      <point x="940.5799999999999" y="42.816"/>
      <point x="974.98" y="131.75199999999998" type="curve"/>
      <point x="880.8600000000001" y="170.072" type="line"/>
      <point x="862.1600000000001" y="127.424"/>
      <point x="841.9200000000001" y="96.60000000000001"/>
      <point x="814.6" y="96.60000000000001" type="curve" smooth="yes"/>
      <point x="790.8199999999999" y="96.60000000000001"/>
      <point x="777.6600000000001" y="109.6"/>
    </contour>
  </outline>
</glyph>
<glyph name="horizontalbar" format="2">
  <advance width="1123.74"/>
  <unicode hex="2015"/>
  <outline>
    <contour>
      <point x="0.0" y="374.12" type="line"/>
      <point x="0.0" y="255.88" type="line"/>
      <point x="1123.74" y="255.88" type="line"/>
      <point x="1123.74" y="374.12" type="line"/>
    </contour>
  </outline>
</glyph>
<glyph name="quoteright" format="2">
  <advance width="313.68000000000006"/>
  <unicode hex="2019"/>
  <outline>
    <contour>
      <point x="133.06" y="341.8" type="line"/>
      <point x="235.26" y="417.76"/>
      <point x="289.9" y="507.08"/>
      <point x="289.9" y="602.2239999999999" type="curve" smooth="yes"/>
      <point x="289.9" y="680.1840000000001"/>
      <point x="235.25999999999996" y="715.0"/>
      <point x="156.84000000000003" y="715.0" type="curve" smooth="yes"/>
      <point x="79.42" y="715.0"/>
      <point x="31.859999999999992" y="674.192"/>
      <point x="31.859999999999992" y="625.88" type="curve" smooth="yes"/>
      <point x="31.859999999999992" y="576.4"/>
      <point x="82.96000000000001" y="540.256"/>
      <point x="155.84" y="540.256" type="curve" smooth="yes"/>
      <point x="177.08000000000004" y="540.256"/>
      <point x="191.24" y="541.9200000000001"/>
      <point x="203.39999999999998" y="550.576" type="curve"/>
      <point x="192.82748959019307" y="557.9770528342357"/>
      <point x="170.0" y="580.7280000000001"/>
      <point x="171.0" y="576.56" type="curve"/>
      <point x="163.92000000000002" y="512.912"/>
      <point x="91.57999999999998" y="448.58399999999995"/>
      <point x="-4.540000000000003" y="393.768" type="curve"/>
    </contour>
  </outline>
</glyph>
<glyph name="kip" format="2">
  <advance width="665.8399999999999"/>
  <unicode hex="20AD"/>
  <outline>
    <contour>
      <point x="6.080000000000009" y="418.632" type="line"/>
      <point x="6.080000000000009" y="330.024" type="line"/>
      <point x="659.7600000000001" y="330.024" type="line"/>
      <point x="659.7600000000001" y="418.632" type="line"/>
    </contour>
    <contour>
      <point x="6.080000000000009" y="0.0" type="line"/>
      <point x="323.3" y="0.0" type="line" smooth="yes"/>
      <point x="323.3" y="76.11999999999999" type="line" smooth="yes"/>
      <point x="319.75999999999993" y="76.11999999999999" type="line" smooth="yes"/>
      <point x="310.14" y="76.11999999999999"/>
      <point x="304.6" y="79.11999999999999"/>
      <point x="304.6" y="81.96000000000001" type="curve" smooth="yes"/>
      <point x="304.6" y="623.88" type="line" smooth="yes"/>
      <point x="304.6" y="630.88"/>
      <point x="320.53000000000003" y="633.88"/>
      <point x="336.46000000000004" y="633.88" type="curve" smooth="yes"/>
      <point x="349.62" y="633.88" type="line" smooth="yes"/>
      <point x="349.62" y="710.0" type="line" smooth="yes"/>
      <point x="6.080000000000009" y="710.0" type="line"/>
      <point x="6.080000000000009" y="633.88" type="line"/>
      <point x="12.16" y="633.88" type="line" smooth="yes"/>
      <point x="29.81333333333798" y="633.88"/>
      <point x="43.01999999999998" y="626.88"/>
      <point x="43.01999999999998" y="606.2" type="curve" smooth="yes"/>
      <point x="43.01999999999998" y="103.8" type="line" smooth="yes"/>
      <point x="43.01999999999998" y="83.11999999999999"/>
      <point x="29.81333333333798" y="76.11999999999999"/>
      <point x="12.16" y="76.11999999999999" type="curve" smooth="yes"/>
      <point x="6.080000000000009" y="76.11999999999999" type="line"/>
    </contour>
    <contour>
      <point x="665.8399999999999" y="76.11999999999999" type="line"/>
      <point x="664.8399999999999" y="76.11999999999999" type="line" smooth="yes"/>
      <point x="650.14" y="76.11999999999999"/>
      <point x="639.52" y="81.952"/>
      <point x="634.98" y="102.464" type="curve" smooth="yes"/>
      <point x="522.1600000000001" y="494.856" type="line"/>
      <point x="451.81999999999994" y="352.512" type="line"/>
      <point x="589.96" y="597.3919999999999" type="line" smooth="yes"/>
      <point x="608.6600000000001" y="627.88"/>
      <point x="619.28" y="633.88"/>
      <point x="642.0600000000002" y="633.88" type="curve" smooth="yes"/>
      <point x="651.6800000000001" y="633.88" type="line"/>
      <point x="651.6800000000001" y="710.0" type="line"/>
      <point x="424.5" y="710.0" type="line"/>
      <point x="424.5" y="633.88" type="line"/>
      <point x="437.6600000000001" y="633.88" type="line" smooth="yes"/>
      <point x="456.36000000000007" y="633.88"/>
      <point x="476.6" y="632.544"/>
      <point x="475.59999999999997" y="625.544" type="curve"/>
      <point x="317.21999999999997" y="363.672" type="line"/>
      <point x="319.76" y="351.832" type="line"/>
      <point x="370.86" y="81.96000000000001" type="line"/>
      <point x="370.86" y="79.11999999999999"/>
      <point x="362.91374999999994" y="76.11999999999999"/>
      <point x="353.16" y="76.11999999999999" type="curve" smooth="yes"/>
      <point x="349.61999999999995" y="76.11999999999999" type="line"/>
      <point x="349.61999999999995" y="0.0" type="line"/>
      <point x="665.8399999999999" y="0.0" type="line"/>
    </contour>
  </outline>
</glyph>
<glyph name="peso" format="2">
  <advance width="665.8399999999999"/>
  <unicode hex="20B1"/>
  <outline>
    <contour>
      <point x="14.16" y="0.0" type="line"/>
      <point x="337.46" y="0.0" type="line"/>
      <point x="337.46" y="76.11999999999999" type="line"/>
      <point x="330.38000000000005" y="76.11999999999999" type="line" smooth="yes"/>
      <point x="303.06" y="76.11999999999999"/>
      <point x="288.9" y="78.28800000000001"/>
      <point x="288.9" y="85.28800000000001" type="curve" smooth="yes"/>
      <point x="288.9" y="207.4" type="line"/>
      <point x="304.6" y="207.4" type="line" smooth="yes"/>
      <point x="511.0" y="207.4"/>
      <point x="618.2800000000001" y="299.24"/>
      <point x="618.2800000000001" y="465.528" type="curve" smooth="yes"/>
      <point x="618.2800000000001" y="626.824"/>
      <point x="521.6383870974199" y="710.0"/>
      <point x="325.84000000000003" y="710.0" type="curve" smooth="yes"/>
      <point x="14.16" y="710.0" type="line"/>
      <point x="14.16" y="633.88" type="line"/>
      <point x="26.32" y="633.88" type="line" smooth="yes"/>
      <point x="43.551304347806" y="633.88"/>
      <point x="57.17999999999999" y="626.88"/>
      <point x="57.17999999999999" y="597.88" type="curve" smooth="yes"/>
      <point x="57.17999999999999" y="112.11999999999999" type="line" smooth="yes"/>
      <point x="57.17999999999999" y="83.11999999999999"/>
      <point x="43.551304347806" y="76.11999999999999"/>
      <point x="26.32" y="76.11999999999999" type="curve" smooth="yes"/>
      <point x="14.16" y="76.11999999999999" type="line"/>
    </contour>
    <contour>
      <point x="310.14000000000004" y="623.048" type="line" smooth="yes"/>
      <point x="356.7" y="623.048"/>
      <point x="386.5600000000001" y="596.488"/>
      <point x="386.5600000000001" y="461.2" type="curve" smooth="yes"/>
      <point x="386.5600000000001" y="326.744"/>
      <point x="356.7" y="294.016"/>
      <point x="311.68000000000006" y="294.016" type="curve" smooth="yes"/>
      <point x="288.9" y="294.016" type="line"/>
      <point x="288.9" y="623.048" type="line"/>
    </contour>
    <contour>
      <point x="14.16" y="505.0" type="line"/>
      <point x="14.16" y="424.712" type="line"/>
      <point x="229.72000000000003" y="424.712" type="line"/>
      <point x="249.95999999999998" y="433.03200000000004" type="line"/>
      <point x="483.68000000000006" y="433.03200000000004" type="line"/>
      <point x="525.7" y="424.712" type="line"/>
      <point x="665.8399999999999" y="424.712" type="line"/>
      <point x="665.8399999999999" y="505.0" type="line"/>
      <point x="540.86" y="505.0" type="line"/>
      <point x="501.91999999999996" y="496.67999999999995" type="line"/>
      <point x="223.64000000000004" y="496.67999999999995" type="line"/>
      <point x="215.01999999999998" y="505.0" type="line"/>
    </contour>
  </outline>
</glyph>
<glyph name="uni20B8" format="2">
  <advance width="665.8399999999999"/>
  <unicode hex="20B8"/>
  <outline>
    <contour>
      <point x="199.85999999999999" y="112.11999999999999" type="line" smooth="yes"/>
      <point x="199.85999999999999" y="83.11999999999999"/>
      <point x="179.62" y="76.11999999999999"/>
      <point x="149.75999999999996" y="76.11999999999999" type="curve" smooth="yes"/>
      <point x="133.05999999999997" y="76.11999999999999" type="line"/>
      <point x="133.05999999999997" y="0.0" type="line"/>
      <point x="532.78" y="0.0" type="line"/>
      <point x="532.78" y="76.11999999999999" type="line"/>
      <point x="516.08" y="76.11999999999999" type="line" smooth="yes"/>
      <point x="485.22" y="76.11999999999999"/>
      <point x="465.98000000000013" y="83.11999999999999"/>
      <point x="465.98000000000013" y="112.11999999999999" type="curve" smooth="yes"/>
      <point x="465.98000000000013" y="463.24" type="line"/>
      <point x="472.06" y="463.24" type="line" smooth="yes"/>
      <point x="496.84000000000003" y="463.24"/>
      <point x="532.7800000000001" y="456.24"/>
      <point x="535.3199999999999" y="417.744" type="curve" smooth="yes"/>
      <point x="542.4" y="316.416" type="line"/>
      <point x="653.6800000000001" y="316.416" type="line"/>
      <point x="653.6800000000001" y="549.688" type="line"/>
      <point x="12.159999999999997" y="549.688" type="line"/>
      <point x="12.159999999999997" y="316.416" type="line"/>
      <point x="123.44000000000003" y="316.416" type="line"/>
      <point x="130.52000000000004" y="417.744" type="line" smooth="yes"/>
      <point x="133.06" y="456.24"/>
      <point x="167.45999999999998" y="463.24"/>
      <point x="193.78" y="463.24" type="curve" smooth="yes"/>
      <point x="199.85999999999999" y="463.24" type="line"/>
    </contour>
    <contour>
      <point x="12.159999999999997" y="710.0" type="line"/>
      <point x="12.159999999999997" y="623.888" type="line"/>
      <point x="653.6800000000001" y="623.888" type="line"/>
      <point x="653.6800000000001" y="710.0" type="line"/>
    </contour>
  </outline>
</glyph>
<glyph name="summation" format="2">
  <advance width="738.7200000000003"/>
  <unicode hex="2211"/>
  <outline>
    <contour>
      <point x="128.52000000000004" y="621.3599999999999" type="line"/>
      <point x="255.50000000000003" y="649.4" type="line"/>
      <point x="483.68000000000006" y="311.8" type="line"/>
      <point x="483.68000000000006" y="251.16000000000003" type="line"/>
      <point x="82.96000000000001" y="-152.736" type="line"/>
      <point x="123.44" y="-76.12" type="line"/>
      <point x="449.28000000000003" y="-76.12" type="line" smooth="yes"/>
      <point x="539.8600000000001" y="-76.12"/>
      <point x="574.2600000000001" y="-69.12"/>
      <point x="578.8" y="-33.120000000000005" type="curve" smooth="yes"/>
      <point x="591.96" y="68.55999999999997" type="line"/>
      <point x="701.24" y="68.55999999999997" type="line"/>
      <point x="701.24" y="-223.0" type="line"/>
      <point x="23.78" y="-223.0" type="line"/>
      <point x="23.78" y="-77.776" type="line"/>
      <point x="415.88" y="312.12" type="line"/>
      <point x="316.22" y="137.31199999999998" type="line"/>
      <point x="23.78" y="560.6160000000001" type="line"/>
      <point x="23.78" y="710.0" type="line"/>
      <point x="678.0" y="710.0" type="line"/>
      <point x="678.0" y="500.0" type="line"/>
      <point x="570.72" y="500.0" type="line"/>
      <point x="564.6399999999999" y="578.3599999999999" type="line" smooth="yes"/>
      <point x="562.64" y="614.3599999999999"/>
      <point x="519.62" y="621.3599999999999"/>
      <point x="459.9" y="621.3599999999999" type="curve" smooth="yes"/>
    </contour>
  </outline>
</glyph>
<glyph name="radical" format="2">
  <advance width="854.08"/>
  <unicode hex="221A"/>
  <outline>
    <contour>
      <point x="51.1" y="329.456" type="line"/>
      <point x="359.24" y="329.456" type="line"/>
      <point x="132.06" y="381.416" type="line"/>
      <point x="294.9800000000001" y="0.0" type="line"/>
      <point x="513.5400000000001" y="0.0" type="line"/>
      <point x="519.6199999999999" y="38.832" type="line"/>
      <point x="357.70000000000005" y="420.75200000000007" type="line"/>
      <point x="51.1" y="420.75200000000007" type="line"/>
    </contour>
    <contour>
      <point x="693.1600000000001" y="710.0" type="line"/>
      <point x="415.88000000000005" y="0.0" type="line"/>
      <point x="563.6399999999999" y="0.0" type="line"/>
      <point x="841.9199999999998" y="710.0" type="line"/>
    </contour>
  </outline>
</glyph>
<glyph name="integral" format="2">
  <advance width="833.3"/>
  <unicode hex="222B"/>
  <outline>
    <contour>
      <point x="530.24" y="-5.768000000000001" type="curve" smooth="yes"/>
      <point x="546.94" y="506.768" type="line" smooth="yes"/>
      <point x="551.48" y="623.3397573821271"/>
      <point x="568.1800000000001" y="649.72"/>
      <point x="614.7399999999999" y="649.72" type="curve" smooth="yes"/>
      <point x="648.1399999999999" y="649.72"/>
      <point x="672.9200000000001" y="632.56"/>
      <point x="683.54" y="606.0719999999999" type="curve"/>
      <point x="713.4000000000001" y="620.3919999999999"/>
      <point x="685.08" y="658.0400000000001"/>
      <point x="650.1399999999999" y="657.0400000000001" type="curve"/>
      <point x="650.1399999999999" y="571.72" type="line"/>
      <point x="824.2199999999999" y="571.72" type="line"/>
      <point x="824.2199999999999" y="691.528" type="line"/>
      <point x="801.4399999999998" y="705.856"/>
      <point x="723.0200000000002" y="737.0"/>
      <point x="589.96" y="737.0" type="curve" smooth="yes"/>
      <point x="391.09999999999997" y="737.0"/>
      <point x="264.12" y="656.2080000000001"/>
      <point x="258.04" y="506.768" type="curve" smooth="yes"/>
      <point x="241.34000000000003" y="-5.768000000000001" type="line" smooth="yes"/>
      <point x="236.8" y="-122.33978719503415"/>
      <point x="220.1" y="-148.72"/>
      <point x="173.54000000000002" y="-148.72" type="curve" smooth="yes"/>
      <point x="140.14000000000004" y="-148.72"/>
      <point x="115.36000000000004" y="-131.56"/>
      <point x="104.74000000000002" y="-105.072" type="curve"/>
      <point x="74.88" y="-119.392"/>
      <point x="103.19999999999999" y="-157.04"/>
      <point x="138.14000000000004" y="-156.04" type="curve"/>
      <point x="138.14000000000004" y="-70.72" type="line"/>
      <point x="-35.400000000000006" y="-70.72" type="line"/>
      <point x="-35.400000000000006" y="-190.528" type="line"/>
      <point x="-13.160000000000004" y="-204.856"/>
      <point x="65.26" y="-236.0"/>
      <point x="198.32" y="-236.0" type="curve" smooth="yes"/>
      <point x="397.18000000000006" y="-236.0"/>
      <point x="524.16" y="-155.208"/>
    </contour>
  </outline>
</glyph>
<glyph name="notequal" format="2">
  <advance width="665.8399999999999"/>
  <unicode hex="2260"/>
  <outline>
    <contour>
      <point x="435.12" y="636.72" type="line"/>
      <point x="51.099999999999994" y="42.072" type="line"/>
      <point x="206.94" y="42.072" type="line"/>
      <point x="590.96" y="636.72" type="line"/>
    </contour>
    <component base="equal" xOffset="33.20000000000001" yOffset="1.0"/>
  </outline>
</glyph>
<glyph name="hook" format="2">
  <advance width="606.6600000000001"/>
  <unicode hex="2440"/>
  <anchor x="278.28000000000003" y="517.0" name="_top"/>
  <outline>
    <contour>
      <point x="82.96000000000001" y="686.512" type="line"/>
      <point x="89.04" y="740.832"/>
      <point x="139.14000000000001" y="792.976"/>
      <point x="272.2" y="792.976" type="curve" smooth="yes"/>
      <point x="391.1" y="792.976"/>
      <point x="451.82" y="755.152"/>
      <point x="451.82" y="694.832" type="curve" smooth="yes"/>
      <point x="451.82" y="624.68"/>
      <point x="379.48" y="597.1840000000001"/>
      <point x="257.04" y="589.52" type="curve"/>
      <point x="316.21999999999997" y="626.6719999999999" type="line"/>
      <point x="316.21999999999997" y="557.1840000000001" type="line"/>
      <point x="197.32" y="557.1840000000001" type="line"/>
      <point x="197.32" y="636.5039999999999" type="line"/>
      <point x="271.2" y="642.0"/>
      <point x="298.52" y="657.6719999999999"/>
      <point x="298.52" y="686.176" type="curve" smooth="yes"/>
      <point x="298.52" y="705.1840000000001"/>
      <point x="285.35999999999996" y="719.3520000000001"/>
      <point x="260.58000000000004" y="719.3520000000001" type="curve" smooth="yes"/>
      <point x="231.72" y="719.3520000000001"/>
      <point x="217.56" y="706.68"/>
      <point x="214.02000000000004" y="686.512" type="curve"/>
    </contour>
  </outline>
</glyph>
<glyph name="uni25C3" format="2">
  <advance width="909.7200000000001"/>
  <unicode hex="25C3"/>
  <outline>
    <contour>
      <point x="838.3800000000001" y="-40.0" type="line"/>
      <point x="838.3800000000001" y="754.0" type="line"/>
      <point x="23.780000000000005" y="357.0" type="line"/>
    </contour>
    <contour>
      <point x="763.5" y="54.0" type="line"/>
      <point x="785.7399999999999" y="62.0" type="line"/>
      <point x="170.0" y="363.0" type="line"/>
      <point x="170.0" y="351.0" type="line"/>
      <point x="785.7399999999999" y="652.0" type="line"/>
      <point x="763.5" y="660.0" type="line"/>
    </contour>
  </outline>
</glyph>
<glyph name="lozenge" format="2">
  <advance width="751.8799999999999"/>
  <unicode hex="25CA"/>
  <outline>
    <contour>
      <point x="419.96" y="97.38399999999999" type="line"/>
      <point x="177.07999999999998" y="403.768" type="line"/>
      <point x="177.07999999999998" y="305.4" type="line"/>
      <point x="419.96" y="611.7840000000001" type="line"/>
      <point x="329.38000000000005" y="613.448" type="line"/>
      <point x="574.26" y="305.4" type="line"/>
      <point x="574.26" y="403.768" type="line"/>
      <point x="329.38000000000005" y="95.72" type="line"/>
    </contour>
    <contour>
      <point x="444.74" y="710.0" type="line"/>
      <point x="306.6" y="710.0" type="line"/>
      <point x="53.63999999999999" y="397.96799999999996" type="line"/>
      <point x="53.63999999999999" y="311.2" type="line"/>
      <point x="306.6" y="-0.832" type="line"/>
      <point x="444.74" y="-0.832" type="line"/>
      <point x="697.7" y="311.2" type="line"/>
      <point x="697.7" y="397.96799999999996" type="line"/>
    </contour>
  </outline>
</glyph>
<glyph name="Omega" format="2">
  <advance width="1012.9200000000001"/>
  <unicode hex="A7B6"/>
  <outline>
    <contour>
      <point x="506.46000000000004" y="720.0" type="curve" smooth="yes"/>
      <point x="778.6600000000001" y="720.0"/>
      <point x="935.5" y="608.472"/>
      <point x="935.5" y="459.12" type="curve" smooth="yes"/>
      <point x="935.5" y="294.472"/>
      <point x="723.02" y="174.968"/>
      <point x="582.8800000000001" y="95.92" type="curve"/>
      <point x="611.2" y="136.896" type="line"/>
      <point x="721.48" y="136.896" type="line" smooth="yes"/>
      <point x="812.0600000000002" y="136.896"/>
      <point x="853.54" y="143.896"/>
      <point x="863.1600000000001" y="179.896" type="curve" smooth="yes"/>
      <point x="873.7799999999999" y="228.608" type="line"/>
      <point x="983.0600000000001" y="228.608" type="line"/>
      <point x="983.0600000000001" y="0.0" type="line"/>
      <point x="540.8600000000001" y="0.0" type="line"/>
      <point x="540.8600000000001" y="172.68800000000005" type="line"/>
      <point x="605.1199999999999" y="255.888"/>
      <point x="644.6" y="332.744"/>
      <point x="644.6" y="451.632" type="curve" smooth="yes"/>
      <point x="644.6" y="561.1840000000001"/>
      <point x="604.1199999999999" y="626.72"/>
      <point x="506.46000000000004" y="626.72" type="curve" smooth="yes"/>
      <point x="408.79999999999995" y="626.72"/>
      <point x="368.31999999999994" y="561.1840000000001"/>
      <point x="368.31999999999994" y="451.632" type="curve" smooth="yes"/>
      <point x="368.31999999999994" y="332.744"/>
      <point x="407.80000000000007" y="255.888"/>
      <point x="472.05999999999995" y="172.68800000000005" type="curve"/>
      <point x="472.05999999999995" y="0.0" type="line"/>
      <point x="29.860000000000007" y="0.0" type="line"/>
      <point x="29.860000000000007" y="228.608" type="line"/>
      <point x="139.14000000000004" y="228.608" type="line"/>
      <point x="149.76" y="179.896" type="line" smooth="yes"/>
      <point x="159.38000000000005" y="143.896"/>
      <point x="200.85999999999999" y="136.896"/>
      <point x="291.44" y="136.896" type="curve" smooth="yes"/>
      <point x="401.71999999999997" y="136.896" type="line"/>
      <point x="430.58000000000004" y="95.92" type="line"/>
      <point x="289.9" y="174.968"/>
      <point x="77.42000000000002" y="294.472"/>
      <point x="77.42000000000002" y="459.12" type="curve" smooth="yes"/>
      <point x="77.42000000000002" y="608.472"/>
      <point x="234.25999999999996" y="720.0"/>
    </contour>
  </outline>
</glyph>
<glyph name="blackcircle" format="2">
  <advance width="704.3200000000002"/>
  <outline>
    <contour>
      <point x="352.1600000000001" y="80.0" type="curve" smooth="yes"/>
      <point x="501.91999999999996" y="80.0"/>
      <point x="620.8199999999999" y="177.0"/>
      <point x="620.8199999999999" y="304.0" type="curve" smooth="yes"/>
      <point x="620.8199999999999" y="431.0"/>
      <point x="501.91999999999996" y="528.0"/>
      <point x="352.1600000000001" y="528.0" type="curve" smooth="yes"/>
      <point x="202.39999999999998" y="528.0"/>
      <point x="82.96000000000001" y="431.0"/>
      <point x="82.96000000000001" y="304.0" type="curve" smooth="yes"/>
      <point x="82.96000000000001" y="177.0"/>
      <point x="202.39999999999998" y="80.0"/>
    </contour>
  </outline>
</glyph>
<glyph name="blackdownpointingtriangle" format="2">
  <advance width="991.6800000000001"/>
  <outline>
    <contour>
      <point x="23.780000000000005" y="715.0" type="line"/>
      <point x="495.84000000000003" y="0.0" type="line"/>
      <point x="967.8999999999999" y="715.0" type="line"/>
    </contour>
  </outline>
</glyph>
<glyph name="circumflex.uc" format="2">
  <advance width="593.96"/>
  <anchor x="291.44000000000005" y="694.0" name="_top"/>
  <outline>
    <contour>
      <point x="427.03999999999996" y="912.488" type="line"/>
      <point x="560.1" y="773.4960000000001" type="line"/>
      <point x="560.1" y="750.512" type="line"/>
      <point x="414.88000000000005" y="750.512" type="line"/>
      <point x="231.72000000000003" y="845.336" type="line"/>
      <point x="399.72" y="845.336" type="line"/>
      <point x="215.01999999999998" y="750.512" type="line"/>
      <point x="81.96000000000001" y="750.512" type="line"/>
      <point x="81.96000000000001" y="773.4960000000001" type="line"/>
      <point x="216.56" y="912.488" type="line"/>
    </contour>
  </outline>
</glyph>
<glyph name="circumflex_acute.uc" format="2">
  <advance width="606.6600000000001"/>
  <anchor x="291.44000000000005" y="749.0" name="_top"/>
  <outline>
    <contour>
      <point x="562.6399999999999" y="972.144" type="curve" smooth="yes"/>
      <point x="515.08" y="891.968" type="line"/>
      <point x="515.08" y="865.312" type="line"/>
      <point x="586.4199999999998" y="865.312" type="line"/>
      <point x="663.3" y="892.0" type="line" smooth="yes"/>
      <point x="734.6399999999999" y="913.3280000000001"/>
      <point x="773.1199999999999" y="936.16"/>
      <point x="773.1199999999999" y="983.624" type="curve" smooth="yes"/>
      <point x="773.1199999999999" y="1019.1039999999999"/>
      <point x="738.1800000000001" y="1047.9199999999998"/>
      <point x="686.0799999999999" y="1047.9199999999998" type="curve" smooth="yes"/>
      <point x="626.3600000000001" y="1047.9199999999998"/>
      <point x="594.5" y="1020.6080000000001"/>
    </contour>
    <component base="circumflex.uc" xOffset="65.88000000000001"/>
  </outline>
</glyph>
<glyph name="f.short" format="2">
  <advance width="513.5400000000001"/>
  <outline>
    <contour>
      <point x="-3.552713678800501e-15" y="512.992" type="line"/>
      <point x="-3.552713678800501e-15" y="432.69599999999997" type="line"/>
      <point x="502.91999999999996" y="432.69599999999997" type="line"/>
      <point x="502.91999999999996" y="512.992" type="line"/>
    </contour>
    <contour>
      <point x="374.4" y="79.12799999999999" type="curve" smooth="yes"/>
      <point x="374.4" y="572.664" type="line" smooth="yes"/>
      <point x="374.4" y="637.2239999999999"/>
      <point x="394.64" y="661.888"/>
      <point x="441.20000000000005" y="661.888" type="curve" smooth="yes"/>
      <point x="473.06000000000006" y="661.888"/>
      <point x="502.91999999999996" y="650.7280000000001"/>
      <point x="509.0" y="647.72" type="curve"/>
      <point x="509.0" y="735.344" type="line"/>
      <point x="492.29999999999995" y="740.512"/>
      <point x="447.28000000000003" y="747.84"/>
      <point x="390.1" y="747.84" type="curve" smooth="yes"/>
      <point x="220.59871886063993" y="747.84"/>
      <point x="84.49999999999999" y="695.856"/>
      <point x="84.49999999999999" y="543.544" type="curve" smooth="yes"/>
      <point x="84.49999999999999" y="101.8" type="line" smooth="yes"/>
      <point x="84.49999999999999" y="80.28800000000001"/>
      <point x="66.80000000000001" y="70.792"/>
      <point x="33.400000000000006" y="70.792" type="curve" smooth="yes"/>
      <point x="19.24" y="70.792" type="line"/>
      <point x="19.24" y="0.0" type="line"/>
      <point x="455.36" y="0.0" type="line"/>
      <point x="455.36" y="70.792" type="line"/>
      <point x="443.74" y="70.792" type="line" smooth="yes"/>
      <point x="412.34000000000003" y="70.792"/>
      <point x="374.4" y="72.96000000000002"/>
    </contour>
  </outline>
</glyph>
<glyph name="four.den" format="2">
  <advance width="462.44"/>
  <outline>
    <contour>
      <point x="10.62" y="69.192" type="line"/>
      <point x="444.74" y="69.192" type="line"/>
      <point x="444.74" y="164.456" type="line"/>
      <point x="77.42000000000002" y="164.456" type="line"/>
      <point x="52.1" y="114.48800000000001" type="line"/>
      <point x="231.72000000000003" y="319.152" type="line"/>
      <point x="242.34000000000003" y="372.616" type="line"/>
      <point x="192.78" y="372.616" type="line"/>
      <point x="10.62" y="166.62400000000002" type="line"/>
    </contour>
    <contour>
      <point x="396.18000000000006" y="0.0" type="line"/>
      <point x="396.18000000000006" y="372.616" type="line"/>
      <point x="222.1" y="372.616" type="line"/>
      <point x="213.02" y="335.296" type="line"/>
      <point x="213.02" y="0.0" type="line"/>
    </contour>
  </outline>
</glyph>
<glyph name="guarani.proportional" format="2">
  <advance width="958.2800000000001"/>
  <outline>
    <contour>
      <point x="634.98" y="362.16" type="line"/>
      <point x="634.98" y="286.03999999999996" type="line"/>
      <point x="634.98" y="286.03999999999996" type="line" smooth="yes"/>
      <point x="634.98" y="286.03999999999996"/>
      <point x="634.98" y="279.03999999999996"/>
      <point x="634.98" y="250.04" type="curve"/>
      <point x="872.78" y="250.04" type="line"/>
      <point x="872.78" y="279.03999999999996"/>
      <point x="889.48" y="286.03999999999996"/>
      <point x="911.7200000000003" y="286.03999999999996" type="curve" smooth="yes"/>
      <point x="920.3399999999999" y="286.03999999999996" type="line"/>
      <point x="920.3399999999999" y="362.16" type="line"/>
    </contour>
    <contour>
      <point x="431.58000000000004" y="790.0" type="line"/>
      <point x="431.58000000000004" y="662.176" type="line"/>
      <point x="447.2800000000001" y="652.168" type="line"/>
      <point x="447.2800000000001" y="53.16" type="line"/>
      <point x="431.58000000000004" y="39.664" type="line"/>
      <point x="431.58000000000004" y="-120.0" type="line"/>
      <point x="550.48" y="-120.0" type="line"/>
      <point x="550.48" y="37.992" type="line"/>
      <point x="535.3199999999999" y="53.647999999999996" type="line"/>
      <point x="535.3199999999999" y="659.848" type="line"/>
      <point x="550.48" y="669.84" type="line"/>
      <point x="550.48" y="790.0" type="line"/>
    </contour>
    <contour>
      <point x="496.84000000000003" y="-6.640000000000001" type="curve" smooth="yes"/>
      <point x="672.92" y="-6.640000000000001"/>
      <point x="821.6799999999998" y="54.2"/>
      <point x="872.78" y="108.70400000000001" type="curve"/>
      <point x="872.78" y="296.03999999999996" type="line"/>
      <point x="634.98" y="324.84" type="line"/>
      <point x="634.98" y="118.696" type="line"/>
      <point x="610.2" y="100.192"/>
      <point x="563.6399999999999" y="84.64"/>
      <point x="515.08" y="84.64" type="curve" smooth="yes"/>
      <point x="394.64" y="84.64"/>
      <point x="323.3" y="174.50400000000002"/>
      <point x="323.3" y="355.0" type="curve" smooth="yes"/>
      <point x="323.3" y="518.0880105661032"/>
      <point x="370.85999999999996" y="625.3599999999999"/>
      <point x="539.8599999999999" y="625.3599999999999" type="curve" smooth="yes"/>
      <point x="618.2800000000001" y="625.3599999999999"/>
      <point x="676.46" y="592.3520000000001"/>
      <point x="700.2399999999999" y="552.312" type="curve"/>
      <point x="781.1999999999999" y="548.2080000000001"/>
      <point x="705.3200000000002" y="601.84"/>
      <point x="648.1400000000001" y="609.832" type="curve"/>
      <point x="648.1400000000001" y="498.512" type="line"/>
      <point x="865.7" y="498.512" type="line"/>
      <point x="865.7" y="634.44" type="line"/>
      <point x="836.8399999999999" y="661.824"/>
      <point x="717.9399999999999" y="716.6400000000001"/>
      <point x="525.7" y="716.6400000000001" type="curve" smooth="yes"/>
      <point x="228.18000000000004" y="716.6400000000001"/>
      <point x="37.94" y="566.984"/>
      <point x="37.94" y="355.0" type="curve" smooth="yes"/>
      <point x="37.94" y="136.51999999999998"/>
      <point x="222.10000000000002" y="-6.640000000000001"/>
    </contour>
  </outline>
</glyph>
<glyph name="heart" format="2">
  <advance width="1071.1"/>
  <outline>
    <contour>
      <point x="522.1600000000001" y="-10.0" type="line"/>
      <point x="240.34000000000003" y="273.0" type="line" smooth="yes"/>
      <point x="139.14000000000001" y="375.0"/>
      <point x="82.96000000000001" y="437.0"/>
      <point x="82.96000000000001" y="535.0" type="curve" smooth="yes"/>
      <point x="82.96000000000001" y="632.0"/>
      <point x="161.92000000000002" y="710.0"/>
      <point x="299.52" y="710.0" type="curve" smooth="yes"/>
      <point x="480.14000000000004" y="710.0"/>
      <point x="580.3399999999999" y="567.0"/>
      <point x="580.3399999999999" y="363.0" type="curve"/>
      <point x="491.3" y="363.0" type="line"/>
      <point x="491.3" y="567.0"/>
      <point x="590.96" y="710.0"/>
      <point x="771.58" y="710.0" type="curve" smooth="yes"/>
      <point x="909.7200000000001" y="710.0"/>
      <point x="988.14" y="632.0"/>
      <point x="988.14" y="535.0" type="curve" smooth="yes"/>
      <point x="988.14" y="437.0"/>
      <point x="931.96" y="375.0"/>
      <point x="831.3" y="273.0" type="curve" smooth="yes"/>
      <point x="549.48" y="-10.0" type="line"/>
    </contour>
  </outline>
</glyph>
<glyph name="heartsuitwhite" format="2">
  <advance width="1071.1"/>
  <outline>
    <contour>
      <point x="542.4000000000001" y="461.0" type="line"/>
      <point x="578.8000000000001" y="541.0"/>
      <point x="653.6800000000001" y="641.0"/>
      <point x="761.9600000000002" y="641.0" type="curve" smooth="yes"/>
      <point x="851.54" y="641.0"/>
      <point x="901.0999999999999" y="594.0"/>
      <point x="901.0999999999999" y="528.0" type="curve" smooth="yes"/>
      <point x="901.0999999999999" y="446.0"/>
      <point x="852.54" y="397.0"/>
      <point x="773.1200000000002" y="316.0" type="curve" smooth="yes"/>
      <point x="540.8600000000001" y="83.0" type="line"/>
      <point x="530.24" y="83.0" type="line"/>
      <point x="298.52" y="316.0" type="line" smooth="yes"/>
      <point x="218.55999999999995" y="397.0"/>
      <point x="170.0" y="446.0"/>
      <point x="170.0" y="528.0" type="curve" smooth="yes"/>
      <point x="170.0" y="594.0"/>
      <point x="220.1" y="641.0"/>
      <point x="309.14" y="641.0" type="curve" smooth="yes"/>
      <point x="417.41999999999996" y="641.0"/>
      <point x="492.3" y="541.0"/>
      <point x="530.24" y="461.0" type="curve"/>
    </contour>
    <contour>
      <point x="522.1600000000001" y="-10.0" type="line"/>
      <point x="549.48" y="-10.0" type="line"/>
      <point x="831.3" y="273.0" type="line" smooth="yes"/>
      <point x="931.96" y="375.0"/>
      <point x="988.14" y="437.0"/>
      <point x="988.14" y="535.0" type="curve" smooth="yes"/>
      <point x="988.14" y="632.0"/>
      <point x="909.7200000000001" y="710.0"/>
      <point x="771.58" y="710.0" type="curve" smooth="yes"/>
      <point x="661.3000000000001" y="710.0"/>
      <point x="581.3399999999999" y="657.0"/>
      <point x="536.3199999999999" y="569.0" type="curve"/>
      <point x="489.7600000000001" y="657.0"/>
      <point x="410.34000000000003" y="710.0"/>
      <point x="299.52" y="710.0" type="curve" smooth="yes"/>
      <point x="161.92000000000002" y="710.0"/>
      <point x="82.96000000000001" y="632.0"/>
      <point x="82.96000000000001" y="535.0" type="curve" smooth="yes"/>
      <point x="82.96000000000001" y="437.0"/>
      <point x="139.14000000000001" y="375.0"/>
      <point x="240.34000000000003" y="273.0" type="curve" smooth="yes"/>
    </contour>
  </outline>
</glyph>
<glyph name="horn" format="2">
  <advance width="594.5"/>
  <anchor x="306.60000000000014" y="444.0" name="_top"/>
  <outline>
    <contour>
      <point x="146.22000000000003" y="470.52000000000004" type="curve"/>
      <point x="423.5" y="454.69599999999997"/>
      <point x="524.1600000000001" y="505.53599999999994"/>
      <point x="524.1600000000001" y="680.0" type="curve"/>
      <point x="333.91999999999996" y="680.0" type="line"/>
      <point x="331.91999999999996" y="556.992"/>
      <point x="268.65999999999997" y="522.992"/>
      <point x="103.19999999999999" y="522.992" type="curve"/>
      <point x="108.28000000000006" y="509.0"/>
      <point x="134.5999999999999" y="475.192"/>
    </contour>
  </outline>
</glyph>
<glyph name="nine.den" format="2">
  <advance width="486.2200000000001"/>
  <outline>
    <contour>
      <point x="65.26" y="44.96" type="line"/>
      <point x="196.32" y="52.81272000188257"/>
      <point x="277.28000000000003" y="104.168"/>
      <point x="277.28000000000003" y="217.976" type="curve" smooth="yes"/>
      <point x="277.28000000000003" y="305.296"/>
      <point x="266.12" y="321.976"/>
      <point x="243.88" y="321.976" type="curve" smooth="yes"/>
      <point x="220.10000000000002" y="321.976"/>
      <point x="211.47999999999996" y="304.4174488889274"/>
      <point x="211.47999999999996" y="252.128" type="curve" smooth="yes"/>
      <point x="211.47999999999996" y="210.792"/>
      <point x="221.10000000000002" y="183.62400000000002"/>
      <point x="250.96" y="183.62400000000002" type="curve" smooth="yes"/>
      <point x="271.20000000000005" y="183.62400000000002"/>
      <point x="287.9" y="201.29740348572696"/>
      <point x="302.05999999999995" y="226.336" type="curve"/>
      <point x="301.05999999999995" y="188.344" type="line"/>
      <point x="291.44" y="162.98407564603855"/>
      <point x="251.95999999999998" y="130.48000000000002"/>
      <point x="180.61999999999998" y="130.48000000000002" type="curve" smooth="yes"/>
      <point x="89.04000000000002" y="130.48000000000002"/>
      <point x="26.320000000000004" y="173.808"/>
      <point x="26.320000000000004" y="247.632" type="curve" smooth="yes"/>
      <point x="26.320000000000004" y="331.2446611764094"/>
      <point x="115.36000000000001" y="377.616"/>
      <point x="243.88" y="377.616" type="curve" smooth="yes"/>
      <point x="390.1" y="377.616"/>
      <point x="459.9" y="324.128"/>
      <point x="459.9" y="217.808" type="curve" smooth="yes"/>
      <point x="459.9" y="83.84800000000001"/>
      <point x="309.14" y="0.32800000000000007"/>
      <point x="75.88" y="-10.512" type="curve"/>
    </contour>
  </outline>
</glyph>
<glyph name="one.old" format="2">
  <advance width="665.8399999999999"/>
  <outline>
    <contour>
      <point x="510.0" y="120.43999999999998" type="curve" smooth="yes"/>
      <point x="510.0" y="548.0" type="line"/>
      <point x="280.81999999999994" y="548.0" type="line"/>
      <point x="240.34000000000003" y="499.496"/>
      <point x="182.15999999999997" y="472.33599999999996"/>
      <point x="47.55999999999999" y="471.168" type="curve"/>
      <point x="47.55999999999999" y="353.76" type="line"/>
      <point x="159.37999999999997" y="352.592"/>
      <point x="231.72" y="377.768"/>
      <point x="265.11999999999995" y="460.37600000000003" type="curve"/>
      <point x="250.96" y="472.544"/>
      <point x="257.04" y="462.224"/>
      <point x="240.34000000000003" y="452.704" type="curve"/>
      <point x="240.34000000000003" y="120.43999999999998" type="line" smooth="yes"/>
      <point x="240.34000000000003" y="83.11999999999999"/>
      <point x="180.62" y="76.11999999999999"/>
      <point x="111.82" y="76.11999999999999" type="curve" smooth="yes"/>
      <point x="71.33999999999997" y="76.11999999999999" type="line"/>
      <point x="71.33999999999997" y="0.0" type="line"/>
      <point x="662.3" y="0.0" type="line"/>
      <point x="662.3" y="76.11999999999999" type="line"/>
      <point x="638.5200000000002" y="76.11999999999999" type="line" smooth="yes"/>
      <point x="563.64" y="76.11999999999999"/>
      <point x="510.0" y="83.11999999999999"/>
    </contour>
  </outline>
</glyph>
<glyph name="seven.old" format="2">
  <advance width="665.8399999999999"/>
  <outline>
    <contour>
      <point x="267.65999999999997" y="401.944" type="line" smooth="yes"/>
      <point x="194.77999999999997" y="401.944"/>
      <point x="167.45999999999998" y="394.944"/>
      <point x="162.92000000000002" y="358.944" type="curve" smooth="yes"/>
      <point x="154.84000000000003" y="283.92" type="line"/>
      <point x="59.720000000000006" y="283.92" type="line"/>
      <point x="59.720000000000006" y="548.0" type="line"/>
      <point x="641.0600000000002" y="548.0" type="line"/>
      <point x="641.0600000000002" y="415.424" type="line"/>
      <point x="517.08" y="269.88800000000003"/>
      <point x="445.74" y="169.184"/>
      <point x="437.65999999999997" y="-137.496" type="curve"/>
      <point x="176.07999999999998" y="-137.496" type="line"/>
      <point x="200.85999999999996" y="154.2"/>
      <point x="448.28000000000003" y="352.28"/>
      <point x="557.5600000000001" y="436.912" type="curve"/>
      <point x="588.4200000000001" y="401.944" type="line"/>
    </contour>
  </outline>
</glyph>
<glyph name="six.lin" format="2">
  <advance width="665.8399999999999"/>
  <outline>
    <contour>
      <point x="576.8" y="655.0400000000001" type="line"/>
      <point x="401.7199999999999" y="618.712816547998"/>
      <point x="285.36" y="493.504"/>
      <point x="285.36" y="286.67999999999995" type="curve" smooth="yes"/>
      <point x="285.36" y="121.832"/>
      <point x="302.05999999999995" y="74.96000000000001"/>
      <point x="335.46" y="74.96000000000001" type="curve" smooth="yes"/>
      <point x="366.32" y="74.96000000000001"/>
      <point x="376.94" y="124.496"/>
      <point x="376.94" y="229.16799999999998" type="curve" smooth="yes"/>
      <point x="376.94" y="313.024"/>
      <point x="370.86000000000007" y="368.03999999999996"/>
      <point x="328.38000000000005" y="368.03999999999996" type="curve" smooth="yes"/>
      <point x="293.44000000000005" y="368.03999999999996"/>
      <point x="267.65999999999997" y="331.33513049602664"/>
      <point x="242.34" y="282.10400000000004" type="curve"/>
      <point x="236.80000000000007" y="353.24" type="line"/>
      <point x="255.5" y="400.2918577360881"/>
      <point x="303.05999999999995" y="453.0"/>
      <point x="408.8" y="453.0" type="curve" smooth="yes"/>
      <point x="551.48" y="453.0"/>
      <point x="648.1399999999999" y="376.488"/>
      <point x="648.1399999999999" y="236.656" type="curve" smooth="yes"/>
      <point x="648.1399999999999" y="81.84800000000001"/>
      <point x="526.7" y="-10.0"/>
      <point x="342.5399999999999" y="-10.0" type="curve" smooth="yes"/>
      <point x="146.22000000000003" y="-10.0"/>
      <point x="17.700000000000003" y="83.68"/>
      <point x="17.700000000000003" y="290.008" type="curve" smooth="yes"/>
      <point x="17.700000000000003" y="513.0"/>
      <point x="237.8" y="697.0094115531679"/>
      <point x="560.1" y="740.0" type="curve"/>
    </contour>
  </outline>
</glyph>
<glyph name="six.old" format="2">
  <advance width="665.8399999999999"/>
  <outline>
    <contour>
      <point x="576.8000000000001" y="655.0400000000001" type="line"/>
      <point x="401.7199999999999" y="618.36660832142"/>
      <point x="285.36" y="494.008"/>
      <point x="285.36" y="287.52000000000004" type="curve" smooth="yes"/>
      <point x="285.36" y="122.672"/>
      <point x="302.05999999999995" y="74.96000000000001"/>
      <point x="335.4599999999999" y="74.96000000000001" type="curve" smooth="yes"/>
      <point x="366.31999999999994" y="74.96000000000001"/>
      <point x="376.94000000000005" y="124.328"/>
      <point x="376.94000000000005" y="228.83200000000002" type="curve" smooth="yes"/>
      <point x="376.94000000000005" y="312.688"/>
      <point x="370.86000000000007" y="367.704"/>
      <point x="328.38000000000005" y="367.704" type="curve" smooth="yes"/>
      <point x="293.44" y="367.704"/>
      <point x="267.65999999999997" y="330.82399999999996"/>
      <point x="242.34000000000003" y="281.6" type="curve"/>
      <point x="236.8" y="352.904" type="line"/>
      <point x="255.5" y="399.94461636592456"/>
      <point x="303.06" y="452.66400000000004"/>
      <point x="408.79999999999995" y="452.66400000000004" type="curve" smooth="yes"/>
      <point x="551.48" y="452.66400000000004"/>
      <point x="648.1399999999999" y="376.152"/>
      <point x="648.1399999999999" y="236.32" type="curve" smooth="yes"/>
      <point x="648.1399999999999" y="81.68"/>
      <point x="526.7" y="-10.0"/>
      <point x="342.5399999999999" y="-10.0" type="curve" smooth="yes"/>
      <point x="146.22000000000003" y="-10.0"/>
      <point x="17.7" y="83.68"/>
      <point x="17.7" y="295.0" type="curve" smooth="yes"/>
      <point x="17.7" y="512.664"/>
      <point x="237.8" y="696.5214493863248"/>
      <point x="560.1" y="740.0" type="curve"/>
    </contour>
  </outline>
</glyph>
<glyph name="three.old" format="2">
  <advance width="665.8399999999999"/>
  <outline>
    <contour>
      <point x="279.2800000000001" y="-56.72000000000001" type="curve" smooth="yes"/>
      <point x="350.61999999999995" y="-56.72000000000001"/>
      <point x="387.56000000000006" y="-15.704"/>
      <point x="387.56000000000006" y="61.152" type="curve" smooth="yes"/>
      <point x="387.56000000000006" y="129.84799999999998"/>
      <point x="367.32" y="180.856"/>
      <point x="253.5" y="180.856" type="curve" smooth="yes"/>
      <point x="200.85999999999996" y="180.856" type="line"/>
      <point x="200.85999999999996" y="266.144" type="line"/>
      <point x="238.8" y="266.144" type="line" smooth="yes"/>
      <point x="337.46" y="266.144"/>
      <point x="375.9399999999999" y="303.32000000000005"/>
      <point x="375.9399999999999" y="387.82399999999996" type="curve" smooth="yes"/>
      <point x="375.9399999999999" y="445.86400000000003"/>
      <point x="350.61999999999995" y="469.048"/>
      <point x="311.68000000000006" y="469.048" type="curve" smooth="yes"/>
      <point x="273.2" y="469.048"/>
      <point x="251.95999999999998" y="447.856"/>
      <point x="234.26" y="422.32000000000005" type="curve"/>
      <point x="229.72000000000003" y="430.368"/>
      <point x="231.72000000000003" y="475.66400000000004"/>
      <point x="269.65999999999997" y="478.832" type="curve"/>
      <point x="269.65999999999997" y="363.67999999999995" type="line"/>
      <point x="65.26" y="363.67999999999995" type="line"/>
      <point x="65.26" y="482.13599999999997" type="line"/>
      <point x="117.9" y="521.312"/>
      <point x="210.48000000000002" y="558.0"/>
      <point x="342.53999999999996" y="558.0" type="curve" smooth="yes"/>
      <point x="500.38" y="558.0"/>
      <point x="633.9800000000001" y="506.312"/>
      <point x="633.9800000000001" y="390.672" type="curve" smooth="yes"/>
      <point x="633.9800000000001" y="270.368"/>
      <point x="464.98" y="216.83999999999997"/>
      <point x="253.5" y="216.83999999999997" type="curve"/>
      <point x="274.74" y="235.16000000000003" type="line"/>
      <point x="545.94" y="235.16000000000003"/>
      <point x="653.6800000000001" y="165.976"/>
      <point x="653.6800000000001" y="53.664" type="curve" smooth="yes"/>
      <point x="653.6800000000001" y="-79.48"/>
      <point x="510.0" y="-150.0"/>
      <point x="329.38000000000005" y="-150.0" type="curve" smooth="yes"/>
      <point x="149.76" y="-150.0"/>
      <point x="57.18" y="-79.84800000000001"/>
      <point x="28.32" y="4.327999999999999" type="curve"/>
      <point x="135.6" y="57.80800000000001" type="line"/>
      <point x="153.3" y="16.104"/>
      <point x="193.77999999999997" y="-56.72000000000001"/>
    </contour>
  </outline>
</glyph>
<glyph name="two.den" format="2">
  <advance width="447.28000000000003"/>
  <outline>
    <contour>
      <point x="265.12" y="99.928" type="line" smooth="yes"/>
      <point x="319.76000000000005" y="99.928"/>
      <point x="337.4600000000001" y="103.928"/>
      <point x="343.54" y="126.256" type="curve" smooth="yes"/>
      <point x="350.62" y="156.104" type="line"/>
      <point x="423.5" y="156.104" type="line"/>
      <point x="423.5" y="0.0" type="line"/>
      <point x="23.78" y="0.0" type="line"/>
      <point x="23.78" y="107.43199999999999" type="line"/>
      <point x="163.92000000000002" y="162.43200000000002"/>
      <point x="224.64000000000001" y="188.64"/>
      <point x="224.64000000000001" y="267.96799999999996" type="curve" smooth="yes"/>
      <point x="224.64000000000001" y="303.312"/>
      <point x="211.48000000000002" y="318.648"/>
      <point x="186.70000000000002" y="318.648" type="curve" smooth="yes"/>
      <point x="153.3" y="318.648"/>
      <point x="134.6" y="289.82399999999996"/>
      <point x="128.52000000000004" y="270.648" type="curve"/>
      <point x="128.52" y="288.152"/>
      <point x="139.14000000000004" y="328.12"/>
      <point x="163.92000000000002" y="329.952" type="curve"/>
      <point x="163.92000000000002" y="250.31199999999998" type="line"/>
      <point x="26.32" y="250.31199999999998" type="line"/>
      <point x="26.32" y="310.632" type="line"/>
      <point x="60.72" y="352.11199999999997"/>
      <point x="124.97999999999999" y="377.616"/>
      <point x="218.56" y="377.616" type="curve" smooth="yes"/>
      <point x="346.08000000000004" y="377.616"/>
      <point x="410.34000000000003" y="335.128"/>
      <point x="410.34000000000003" y="265.96799999999996" type="curve" smooth="yes"/>
      <point x="410.34000000000003" y="170.32"/>
      <point x="238.8" y="122.61600000000001"/>
      <point x="109.27999999999999" y="82.432" type="curve"/>
      <point x="90.57999999999998" y="82.6"/>
      <point x="96.12" y="96.096"/>
      <point x="96.12" y="99.928" type="curve"/>
    </contour>
  </outline>
</glyph>
<glyph name="two.old" format="2">
  <advance width="665.8399999999999"/>
  <outline>
    <contour>
      <point x="285.36" y="469.216" type="curve" smooth="yes"/>
      <point x="243.88" y="469.216"/>
      <point x="217.55999999999995" y="446.52000000000004"/>
      <point x="200.85999999999999" y="420.648" type="curve"/>
      <point x="196.32" y="429.03200000000004"/>
      <point x="196.32" y="475.328"/>
      <point x="234.26" y="478.16" type="curve"/>
      <point x="234.26" y="354.688" type="line"/>
      <point x="29.859999999999985" y="354.688" type="line"/>
      <point x="29.859999999999985" y="483.96000000000004" type="line"/>
      <point x="84.49999999999999" y="520.808"/>
      <point x="184.15999999999997" y="558.0"/>
      <point x="322.3" y="558.0" type="curve" smooth="yes"/>
      <point x="520.6199999999999" y="558.0"/>
      <point x="615.7399999999999" y="497.33599999999996"/>
      <point x="615.7399999999999" y="396.992" type="curve" smooth="yes"/>
      <point x="615.7399999999999" y="255.488"/>
      <point x="361.24" y="176.76000000000002"/>
      <point x="143.67999999999998" y="126.368" type="curve"/>
      <point x="118.89999999999999" y="114.728"/>
      <point x="125.98000000000002" y="131.056"/>
      <point x="126.98" y="141.888" type="curve"/>
      <point x="385.02" y="141.888" type="line" smooth="yes"/>
      <point x="475.6" y="141.888"/>
      <point x="506.4600000000001" y="147.88800000000003"/>
      <point x="515.08" y="183.38400000000001" type="curve" smooth="yes"/>
      <point x="523.1600000000001" y="223.08800000000002" type="line"/>
      <point x="632.4399999999998" y="223.08800000000002" type="line"/>
      <point x="632.4399999999998" y="0.0" type="line"/>
      <point x="22.779999999999998" y="0.0" type="line"/>
      <point x="22.779999999999998" y="162.216" type="line"/>
      <point x="205.94" y="232.416"/>
      <point x="344.54" y="277.984"/>
      <point x="344.54" y="405.81600000000003" type="curve" smooth="yes"/>
      <point x="344.54" y="450.69599999999997"/>
      <point x="325.84000000000003" y="469.216"/>
    </contour>
  </outline>
</glyph>
<glyph name="zero.den" format="2">
  <advance width="502.9200000000001"/>
  <outline>
    <contour>
      <point x="251.96000000000006" y="377.784" type="curve" smooth="yes"/>
      <point x="126.98000000000002" y="377.784"/>
      <point x="29.860000000000007" y="306.12"/>
      <point x="29.860000000000007" y="184.976" type="curve" smooth="yes"/>
      <point x="29.860000000000007" y="64.832"/>
      <point x="126.98000000000002" y="-6.832000000000001"/>
      <point x="251.96000000000006" y="-6.832000000000001" type="curve" smooth="yes"/>
      <point x="375.94000000000005" y="-6.832000000000001"/>
      <point x="473.06000000000006" y="64.832"/>
      <point x="473.06000000000006" y="185.144" type="curve" smooth="yes"/>
      <point x="473.06000000000006" y="306.12"/>
      <point x="375.94000000000005" y="377.784"/>
    </contour>
    <contour>
      <point x="251.96000000000006" y="52.13600000000001" type="curve" smooth="yes"/>
      <point x="229.72000000000003" y="52.13600000000001"/>
      <point x="222.1" y="72.176"/>
      <point x="222.1" y="184.976" type="curve" smooth="yes"/>
      <point x="222.1" y="298.60799999999995"/>
      <point x="229.72000000000003" y="318.81600000000003"/>
      <point x="251.96000000000006" y="318.81600000000003" type="curve" smooth="yes"/>
      <point x="273.2" y="318.81600000000003"/>
      <point x="280.82" y="298.776"/>
      <point x="280.82" y="185.144" type="curve" smooth="yes"/>
      <point x="280.82" y="72.34400000000001"/>
      <point x="273.2" y="52.13600000000001"/>
    </contour>
  </outline>
</glyph>
